<svg width="41" height="41" viewBox="0 0 41 41" fill="none" xmlns="http://www.w3.org/2000/svg">
<path fill-rule="evenodd" clip-rule="evenodd" d="M0 20.5C0 15.0631 2.15981 9.84881 6.00431 6.00431C9.84881 2.15981 15.0631 0 20.5 0C25.9369 0 31.1512 2.15981 34.9957 6.00431C38.8402 9.84881 41 15.0631 41 20.5C41 25.9369 38.8402 31.1512 34.9957 34.9957C31.1512 38.8402 25.9369 41 20.5 41C15.0631 41 9.84881 38.8402 6.00431 34.9957C2.15981 31.1512 0 25.9369 0 20.5V20.5ZM21.4071 13.7196C21.6477 13.479 21.7829 13.1527 21.7829 12.8125C21.7829 12.4723 21.6477 12.146 21.4071 11.9054C21.1665 11.6648 20.8402 11.5296 20.5 11.5296C20.1598 11.5296 19.8335 11.6648 19.5929 11.9054L11.9054 19.5929C11.7861 19.7119 11.6914 19.8533 11.6268 20.0089C11.5622 20.1646 11.529 20.3315 11.529 20.5C11.529 20.6685 11.5622 20.8354 11.6268 20.9911C11.6914 21.1467 11.7861 21.2881 11.9054 21.4071L19.5929 29.0946C19.712 29.2138 19.8534 29.3082 20.0091 29.3727C20.1647 29.4372 20.3315 29.4704 20.5 29.4704C20.6685 29.4704 20.8353 29.4372 20.9909 29.3727C21.1466 29.3082 21.288 29.2138 21.4071 29.0946C21.5263 28.9755 21.6207 28.8341 21.6852 28.6784C21.7497 28.5228 21.7829 28.356 21.7829 28.1875C21.7829 28.019 21.7497 27.8522 21.6852 27.6966C21.6207 27.5409 21.5263 27.3995 21.4071 27.2804L15.9054 21.7812L28.1875 21.7812C28.5273 21.7812 28.8532 21.6463 29.0935 21.406C29.3338 21.1657 29.4688 20.8398 29.4688 20.5C29.4688 20.1602 29.3338 19.8343 29.0935 19.594C28.8532 19.3537 28.5273 19.2188 28.1875 19.2188L15.9054 19.2187L21.4071 13.7196V13.7196Z" fill="white"/>
</svg>
