<svg width="35" height="34" viewBox="0 0 35 34" fill="none" xmlns="http://www.w3.org/2000/svg">
<path d="M33.8688 11.7693L23.3764 10.2444L18.6861 0.735593C18.558 0.475248 18.3472 0.264493 18.0869 0.136387C17.434 -0.185945 16.6405 0.0826646 16.3141 0.735593L11.6237 10.2444L1.1314 11.7693C0.842131 11.8106 0.577654 11.947 0.375163 12.1536C0.130363 12.4052 -0.00453293 12.7437 0.000116312 13.0947C0.00476556 13.4457 0.14858 13.7806 0.399958 14.0256L7.99129 21.4268L6.1978 31.8778C6.15574 32.1209 6.18265 32.371 6.27546 32.5996C6.36827 32.8282 6.52328 33.0262 6.72291 33.1712C6.92253 33.3162 7.15879 33.4023 7.40489 33.4199C7.65099 33.4374 7.89708 33.3857 8.11526 33.2705L17.5001 28.3363L26.8849 33.2705C27.1411 33.4068 27.4387 33.4523 27.7238 33.4027C28.4428 33.2787 28.9263 32.5969 28.8024 31.8778L27.0089 21.4268L34.6002 14.0256C34.8068 13.8231 34.9432 13.5586 34.9845 13.2693C35.0961 12.5462 34.5919 11.8767 33.8688 11.7693ZM23.8145 20.3854L25.3063 29.076L17.5001 24.9766L9.69386 29.0801L11.1857 20.3896L4.87128 14.2322L13.599 12.9635L17.5001 5.05815L21.4011 12.9635L30.1289 14.2322L23.8145 20.3854Z" fill="#515151"/>
</svg>
