<svg width="35" height="32" viewBox="0 0 35 32" fill="none" xmlns="http://www.w3.org/2000/svg">
<path fill-rule="evenodd" clip-rule="evenodd" d="M10.585 23.479V31.9742H23.3769V23.479H10.585Z" fill="#515151"/>
<path fill-rule="evenodd" clip-rule="evenodd" d="M10.585 23.479V31.9742H23.3769V23.479H10.585Z" fill="#515151"/>
<path fill-rule="evenodd" clip-rule="evenodd" d="M8.4502 0H25.415V6.31806H8.4502V0Z" fill="#515151"/>
<path fill-rule="evenodd" clip-rule="evenodd" d="M8.4502 0H25.415V6.31806H8.4502V0Z" fill="#515151"/>
<path fill-rule="evenodd" clip-rule="evenodd" d="M0 8.57227V27.7826H8.34582V21.3663H25.5262V27.7826H34.1517V8.57227H0V8.57227ZM6.35008 12.869H4.11528V10.5723H6.35008V12.869ZM10.619 12.7409H8.38424V10.6064H10.619V12.7409Z" fill="#515151"/>
<path fill-rule="evenodd" clip-rule="evenodd" d="M0 8.57227V27.7826H8.34582V21.3663H25.5262V27.7826H34.1517V8.57227H0V8.57227ZM6.35008 12.869H4.11528V10.5723H6.35008V12.869ZM10.619 12.7409H8.38424V10.6064H10.619V12.7409Z" fill="#515151"/>
</svg>
