<svg width="33" height="35" viewBox="0 0 33 35" fill="none" xmlns="http://www.w3.org/2000/svg">
<path d="M0 17.2925C0 20.4705 2.58619 23.0567 5.76416 23.0567C7.28975 23.0567 8.6693 22.4514 9.70109 21.4811L21.2121 28.06C21.1775 28.3097 21.1353 28.5595 21.1353 28.8208C21.1353 31.9988 23.7215 34.585 26.8994 34.585C30.0774 34.585 32.6636 31.9988 32.6636 28.8208C32.6636 25.6428 30.0774 23.0567 26.8994 23.0567C25.3738 23.0567 23.9943 23.6619 22.9625 24.6322L11.4515 18.0553C11.4861 17.8036 11.5283 17.5538 11.5283 17.2925C11.5283 17.0312 11.4861 16.7814 11.4515 16.5297L22.9625 9.95279C23.9943 10.9231 25.3738 11.5283 26.8994 11.5283C30.0774 11.5283 32.6636 8.94214 32.6636 5.76416C32.6636 2.58619 30.0774 0 26.8994 0C23.7215 0 21.1353 2.58619 21.1353 5.76416C21.1353 6.02547 21.1775 6.27525 21.2121 6.52695L9.70109 13.1039C8.63857 12.0945 7.22967 11.5307 5.76416 11.5283C2.58619 11.5283 0 14.1145 0 17.2925Z" fill="#515151"/>
</svg>
