<svg width="56" height="57" viewBox="0 0 56 57" fill="none" xmlns="http://www.w3.org/2000/svg">
<ellipse cx="28" cy="28.5" rx="28" ry="28.5" fill="#242424"/>
<path d="M43.3377 28.8596L28.7984 14.3309C28.6937 14.226 28.5694 14.1428 28.4325 14.086C28.2956 14.0292 28.1489 14 28.0007 14C27.8525 14 27.7057 14.0292 27.5688 14.086C27.432 14.1428 27.3076 14.226 27.2029 14.3309L12.6636 28.8596C12.24 29.2832 12 29.8586 12 30.4586C12 31.7047 13.0131 32.7177 14.2591 32.7177H15.791V43.0848C15.791 43.7096 16.2958 44.2143 16.9206 44.2143H25.7416V36.3075H29.695V44.2143H39.0808C39.7055 44.2143 40.2103 43.7096 40.2103 43.0848V32.7177H41.7422C42.3423 32.7177 42.9177 32.4812 43.3412 32.0541C44.2202 31.1716 44.2202 29.7421 43.3377 28.8596V28.8596Z" fill="white"/>
</svg>
