<svg width="48" height="26" viewBox="0 0 48 26" fill="none" xmlns="http://www.w3.org/2000/svg">
<path d="M0.54 19.844C0.54 19.388 0.612 18.96 0.756 18.56C0.908 18.152 1.124 17.8 1.404 17.504C1.684 17.2 2.024 16.96 2.424 16.784C2.824 16.608 3.28 16.52 3.792 16.52C4.128 16.52 4.436 16.552 4.716 16.616C4.996 16.672 5.268 16.756 5.532 16.868L5.16 18.296C4.992 18.232 4.808 18.176 4.608 18.128C4.408 18.08 4.184 18.056 3.936 18.056C3.408 18.056 3.012 18.22 2.748 18.548C2.492 18.876 2.364 19.308 2.364 19.844C2.364 20.412 2.484 20.852 2.724 21.164C2.972 21.476 3.4 21.632 4.008 21.632C4.224 21.632 4.456 21.612 4.704 21.572C4.952 21.532 5.18 21.468 5.388 21.38L5.64 22.844C5.432 22.932 5.172 23.008 4.86 23.072C4.548 23.136 4.204 23.168 3.828 23.168C3.252 23.168 2.756 23.084 2.34 22.916C1.924 22.74 1.58 22.504 1.308 22.208C1.044 21.912 0.848 21.564 0.72 21.164C0.6 20.756 0.54 20.316 0.54 19.844ZM12.4393 19.832C12.4393 20.328 12.3673 20.784 12.2233 21.2C12.0793 21.608 11.8713 21.96 11.5993 22.256C11.3273 22.544 10.9993 22.768 10.6153 22.928C10.2393 23.088 9.81531 23.168 9.34331 23.168C8.87931 23.168 8.45531 23.088 8.07131 22.928C7.69531 22.768 7.37131 22.544 7.09931 22.256C6.82731 21.96 6.61531 21.608 6.46331 21.2C6.31131 20.784 6.23531 20.328 6.23531 19.832C6.23531 19.336 6.31131 18.884 6.46331 18.476C6.62331 18.068 6.83931 17.72 7.11131 17.432C7.39131 17.144 7.71931 16.92 8.09531 16.76C8.47931 16.6 8.89531 16.52 9.34331 16.52C9.79931 16.52 10.2153 16.6 10.5913 16.76C10.9753 16.92 11.3033 17.144 11.5753 17.432C11.8473 17.72 12.0593 18.068 12.2113 18.476C12.3633 18.884 12.4393 19.336 12.4393 19.832ZM10.6153 19.832C10.6153 19.28 10.5033 18.848 10.2793 18.536C10.0633 18.216 9.75131 18.056 9.34331 18.056C8.93531 18.056 8.61931 18.216 8.39531 18.536C8.17131 18.848 8.05931 19.28 8.05931 19.832C8.05931 20.384 8.17131 20.824 8.39531 21.152C8.61931 21.472 8.93531 21.632 9.34331 21.632C9.75131 21.632 10.0633 21.472 10.2793 21.152C10.5033 20.824 10.6153 20.384 10.6153 19.832ZM16.3444 23.12C15.8244 23.112 15.4004 23.056 15.0724 22.952C14.7524 22.848 14.4964 22.704 14.3044 22.52C14.1204 22.328 13.9924 22.1 13.9204 21.836C13.8564 21.564 13.8244 21.26 13.8244 20.924V13.976L15.6124 13.688V20.564C15.6124 20.724 15.6244 20.868 15.6484 20.996C15.6724 21.124 15.7164 21.232 15.7804 21.32C15.8524 21.408 15.9524 21.48 16.0804 21.536C16.2084 21.592 16.3804 21.628 16.5964 21.644L16.3444 23.12ZM20.1413 23.12C19.6213 23.112 19.1973 23.056 18.8693 22.952C18.5493 22.848 18.2933 22.704 18.1013 22.52C17.9173 22.328 17.7893 22.1 17.7173 21.836C17.6533 21.564 17.6213 21.26 17.6213 20.924V13.976L19.4093 13.688V20.564C19.4093 20.724 19.4213 20.868 19.4453 20.996C19.4693 21.124 19.5133 21.232 19.5773 21.32C19.6493 21.408 19.7493 21.48 19.8773 21.536C20.0053 21.592 20.1773 21.628 20.3933 21.644L20.1413 23.12ZM24.0059 21.752C24.1819 21.752 24.3499 21.748 24.5099 21.74C24.6699 21.732 24.7979 21.72 24.8939 21.704V20.348C24.8219 20.332 24.7139 20.316 24.5699 20.3C24.4259 20.284 24.2939 20.276 24.1739 20.276C24.0059 20.276 23.8459 20.288 23.6939 20.312C23.5499 20.328 23.4219 20.364 23.3099 20.42C23.1979 20.476 23.1099 20.552 23.0459 20.648C22.9819 20.744 22.9499 20.864 22.9499 21.008C22.9499 21.288 23.0419 21.484 23.2259 21.596C23.4179 21.7 23.6779 21.752 24.0059 21.752ZM23.8619 16.52C24.3899 16.52 24.8299 16.58 25.1819 16.7C25.5339 16.82 25.8139 16.992 26.0219 17.216C26.2379 17.44 26.3899 17.712 26.4779 18.032C26.5659 18.352 26.6099 18.708 26.6099 19.1V22.82C26.3539 22.876 25.9979 22.94 25.5419 23.012C25.0859 23.092 24.5339 23.132 23.8859 23.132C23.4779 23.132 23.1059 23.096 22.7699 23.024C22.4419 22.952 22.1579 22.836 21.9179 22.676C21.6779 22.508 21.4939 22.292 21.3659 22.028C21.2379 21.764 21.1739 21.44 21.1739 21.056C21.1739 20.688 21.2459 20.376 21.3899 20.12C21.5419 19.864 21.7419 19.66 21.9899 19.508C22.2379 19.356 22.5219 19.248 22.8419 19.184C23.1619 19.112 23.4939 19.076 23.8379 19.076C24.0699 19.076 24.2739 19.088 24.4499 19.112C24.6339 19.128 24.7819 19.152 24.8939 19.184V19.016C24.8939 18.712 24.8019 18.468 24.6179 18.284C24.4339 18.1 24.1139 18.008 23.6579 18.008C23.3539 18.008 23.0539 18.032 22.7579 18.08C22.4619 18.12 22.2059 18.18 21.9899 18.26L21.7619 16.82C21.8659 16.788 21.9939 16.756 22.1459 16.724C22.3059 16.684 22.4779 16.652 22.6619 16.628C22.8459 16.596 23.0379 16.572 23.2379 16.556C23.4459 16.532 23.6539 16.52 23.8619 16.52ZM32.2707 19.892C32.2707 19.34 32.1467 18.9 31.8987 18.572C31.6507 18.236 31.2827 18.068 30.7947 18.068C30.6347 18.068 30.4867 18.076 30.3507 18.092C30.2147 18.1 30.1027 18.112 30.0147 18.128V21.356C30.1267 21.428 30.2707 21.488 30.4467 21.536C30.6307 21.584 30.8147 21.608 30.9987 21.608C31.8467 21.608 32.2707 21.036 32.2707 19.892ZM34.0947 19.844C34.0947 20.332 34.0347 20.776 33.9147 21.176C33.7947 21.576 33.6187 21.92 33.3867 22.208C33.1547 22.496 32.8667 22.72 32.5227 22.88C32.1787 23.04 31.7827 23.12 31.3347 23.12C31.0867 23.12 30.8547 23.096 30.6387 23.048C30.4227 23 30.2147 22.932 30.0147 22.844V25.22H28.2267V16.904C28.3867 16.856 28.5707 16.812 28.7787 16.772C28.9867 16.724 29.2027 16.684 29.4267 16.652C29.6587 16.62 29.8907 16.596 30.1227 16.58C30.3627 16.556 30.5907 16.544 30.8067 16.544C31.3267 16.544 31.7907 16.624 32.1987 16.784C32.6067 16.936 32.9507 17.156 33.2307 17.444C33.5107 17.724 33.7227 18.068 33.8667 18.476C34.0187 18.884 34.0947 19.34 34.0947 19.844ZM37.2809 21.716C37.6089 21.716 37.8409 21.684 37.9769 21.62C38.1129 21.556 38.1809 21.432 38.1809 21.248C38.1809 21.104 38.0929 20.98 37.9169 20.876C37.7409 20.764 37.4729 20.64 37.1129 20.504C36.8329 20.4 36.5769 20.292 36.3449 20.18C36.1209 20.068 35.9289 19.936 35.7689 19.784C35.6089 19.624 35.4849 19.436 35.3969 19.22C35.3089 19.004 35.2649 18.744 35.2649 18.44C35.2649 17.848 35.4849 17.38 35.9249 17.036C36.3649 16.692 36.9689 16.52 37.7369 16.52C38.1209 16.52 38.4889 16.556 38.8409 16.628C39.1929 16.692 39.4729 16.764 39.6809 16.844L39.3689 18.236C39.1609 18.164 38.9329 18.1 38.6849 18.044C38.4449 17.988 38.1729 17.96 37.8689 17.96C37.3089 17.96 37.0289 18.116 37.0289 18.428C37.0289 18.5 37.0409 18.564 37.0649 18.62C37.0889 18.676 37.1369 18.732 37.2089 18.788C37.2809 18.836 37.3769 18.892 37.4969 18.956C37.6249 19.012 37.7849 19.076 37.9769 19.148C38.3689 19.292 38.6929 19.436 38.9489 19.58C39.2049 19.716 39.4049 19.868 39.5489 20.036C39.7009 20.196 39.8049 20.376 39.8609 20.576C39.9249 20.776 39.9569 21.008 39.9569 21.272C39.9569 21.896 39.7209 22.368 39.2489 22.688C38.7849 23.008 38.1249 23.168 37.2689 23.168C36.7089 23.168 36.2409 23.12 35.8649 23.024C35.4969 22.928 35.2409 22.848 35.0969 22.784L35.3969 21.332C35.7009 21.452 36.0129 21.548 36.3329 21.62C36.6529 21.684 36.9689 21.716 37.2809 21.716ZM40.9931 19.892C40.9931 19.332 41.0771 18.844 41.2451 18.428C41.4211 18.004 41.6491 17.652 41.9291 17.372C42.2091 17.092 42.5291 16.88 42.8891 16.736C43.2571 16.592 43.6331 16.52 44.0171 16.52C44.9131 16.52 45.6211 16.796 46.1411 17.348C46.6611 17.892 46.9211 18.696 46.9211 19.76C46.9211 19.864 46.9171 19.98 46.9091 20.108C46.9011 20.228 46.8931 20.336 46.8851 20.432H42.8291C42.8691 20.8 43.0411 21.092 43.3451 21.308C43.6491 21.524 44.0571 21.632 44.5691 21.632C44.8971 21.632 45.2171 21.604 45.5291 21.548C45.8491 21.484 46.1091 21.408 46.3091 21.32L46.5491 22.772C46.4531 22.82 46.3251 22.868 46.1651 22.916C46.0051 22.964 45.8251 23.004 45.6251 23.036C45.4331 23.076 45.2251 23.108 45.0011 23.132C44.7771 23.156 44.5531 23.168 44.3291 23.168C43.7611 23.168 43.2651 23.084 42.8411 22.916C42.4251 22.748 42.0771 22.52 41.7971 22.232C41.5251 21.936 41.3211 21.588 41.1851 21.188C41.0571 20.788 40.9931 20.356 40.9931 19.892ZM45.1931 19.208C45.1851 19.056 45.1571 18.908 45.1091 18.764C45.0691 18.62 45.0011 18.492 44.9051 18.38C44.8171 18.268 44.7011 18.176 44.5571 18.104C44.4211 18.032 44.2491 17.996 44.0411 17.996C43.8411 17.996 43.6691 18.032 43.5251 18.104C43.3811 18.168 43.2611 18.256 43.1651 18.368C43.0691 18.48 42.9931 18.612 42.9371 18.764C42.8891 18.908 42.8531 19.056 42.8291 19.208H45.1931Z" fill="#FF7A00"/>
<path d="M23.1706 1.23134C23.567 0.642883 24.433 0.642882 24.8294 1.23133L29.0123 7.44134C29.4597 8.10557 28.9838 9 28.1829 9H19.8171C19.0162 9 18.5403 8.10557 18.9877 7.44134L23.1706 1.23134Z" fill="#FF7A00"/>
</svg>
