<svg width="42" height="26" viewBox="0 0 42 26" fill="none" xmlns="http://www.w3.org/2000/svg">
<path d="M0.54 7.892C0.54 7.332 0.624 6.844 0.792 6.428C0.968 6.004 1.196 5.652 1.476 5.372C1.756 5.092 2.076 4.88 2.436 4.736C2.804 4.592 3.18 4.52 3.564 4.52C4.46 4.52 5.168 4.796 5.688 5.348C6.208 5.892 6.468 6.696 6.468 7.76C6.468 7.864 6.464 7.98 6.456 8.108C6.448 8.228 6.44 8.336 6.432 8.432H2.376C2.416 8.8 2.588 9.092 2.892 9.308C3.196 9.524 3.604 9.632 4.116 9.632C4.444 9.632 4.764 9.604 5.076 9.548C5.396 9.484 5.656 9.408 5.856 9.32L6.096 10.772C6 10.82 5.872 10.868 5.712 10.916C5.552 10.964 5.372 11.004 5.172 11.036C4.98 11.076 4.772 11.108 4.548 11.132C4.324 11.156 4.1 11.168 3.876 11.168C3.308 11.168 2.812 11.084 2.388 10.916C1.972 10.748 1.624 10.52 1.344 10.232C1.072 9.936 0.868 9.588 0.732 9.188C0.604 8.788 0.54 8.356 0.54 7.892ZM4.74 7.208C4.732 7.056 4.704 6.908 4.656 6.764C4.616 6.62 4.548 6.492 4.452 6.38C4.364 6.268 4.248 6.176 4.104 6.104C3.968 6.032 3.796 5.996 3.588 5.996C3.388 5.996 3.216 6.032 3.072 6.104C2.928 6.168 2.808 6.256 2.712 6.368C2.616 6.48 2.54 6.612 2.484 6.764C2.436 6.908 2.4 7.056 2.376 7.208H4.74ZM10.3558 6.608L11.6038 4.688H13.4518L11.2918 7.724C11.7718 8.324 12.2078 8.908 12.5998 9.476C12.9918 10.044 13.3038 10.552 13.5358 11H11.6158C11.5518 10.88 11.4718 10.732 11.3758 10.556C11.2798 10.372 11.1718 10.184 11.0518 9.992C10.9318 9.792 10.8038 9.596 10.6678 9.404C10.5398 9.204 10.4118 9.024 10.2838 8.864C10.1638 9.016 10.0398 9.184 9.91181 9.368C9.79181 9.552 9.67581 9.74 9.56381 9.932C9.45181 10.116 9.33981 10.3 9.22781 10.484C9.12381 10.668 9.03181 10.84 8.95181 11H7.12781C7.22381 10.8 7.35581 10.564 7.52381 10.292C7.69181 10.02 7.87181 9.74 8.06381 9.452C8.26381 9.156 8.47181 8.864 8.68781 8.576C8.90381 8.28 9.11581 8.004 9.32381 7.748C8.96381 7.244 8.60381 6.736 8.24381 6.224C7.88381 5.704 7.52781 5.192 7.17581 4.688H9.10781L10.3558 6.608ZM18.5363 7.892C18.5363 7.34 18.4123 6.9 18.1643 6.572C17.9163 6.236 17.5483 6.068 17.0603 6.068C16.9003 6.068 16.7523 6.076 16.6163 6.092C16.4803 6.1 16.3683 6.112 16.2803 6.128V9.356C16.3923 9.428 16.5363 9.488 16.7123 9.536C16.8963 9.584 17.0803 9.608 17.2643 9.608C18.1123 9.608 18.5363 9.036 18.5363 7.892ZM20.3603 7.844C20.3603 8.332 20.3003 8.776 20.1803 9.176C20.0603 9.576 19.8843 9.92 19.6523 10.208C19.4203 10.496 19.1323 10.72 18.7883 10.88C18.4443 11.04 18.0483 11.12 17.6003 11.12C17.3523 11.12 17.1203 11.096 16.9043 11.048C16.6883 11 16.4803 10.932 16.2803 10.844V13.22H14.4923V4.904C14.6523 4.856 14.8363 4.812 15.0443 4.772C15.2523 4.724 15.4683 4.684 15.6923 4.652C15.9243 4.62 16.1563 4.596 16.3883 4.58C16.6283 4.556 16.8563 4.544 17.0723 4.544C17.5923 4.544 18.0563 4.624 18.4643 4.784C18.8723 4.936 19.2163 5.156 19.4963 5.444C19.7763 5.724 19.9883 6.068 20.1323 6.476C20.2843 6.884 20.3603 7.34 20.3603 7.844ZM24.1465 9.752C24.3225 9.752 24.4905 9.748 24.6505 9.74C24.8105 9.732 24.9385 9.72 25.0345 9.704V8.348C24.9625 8.332 24.8545 8.316 24.7105 8.3C24.5665 8.284 24.4345 8.276 24.3145 8.276C24.1465 8.276 23.9865 8.288 23.8345 8.312C23.6905 8.328 23.5625 8.364 23.4505 8.42C23.3385 8.476 23.2505 8.552 23.1865 8.648C23.1225 8.744 23.0905 8.864 23.0905 9.008C23.0905 9.288 23.1825 9.484 23.3665 9.596C23.5585 9.7 23.8185 9.752 24.1465 9.752ZM24.0025 4.52C24.5305 4.52 24.9705 4.58 25.3225 4.7C25.6745 4.82 25.9545 4.992 26.1625 5.216C26.3785 5.44 26.5305 5.712 26.6185 6.032C26.7065 6.352 26.7505 6.708 26.7505 7.1V10.82C26.4945 10.876 26.1385 10.94 25.6825 11.012C25.2265 11.092 24.6745 11.132 24.0265 11.132C23.6185 11.132 23.2465 11.096 22.9105 11.024C22.5825 10.952 22.2985 10.836 22.0585 10.676C21.8185 10.508 21.6345 10.292 21.5065 10.028C21.3785 9.764 21.3145 9.44 21.3145 9.056C21.3145 8.688 21.3865 8.376 21.5305 8.12C21.6825 7.864 21.8825 7.66 22.1305 7.508C22.3785 7.356 22.6625 7.248 22.9825 7.184C23.3025 7.112 23.6345 7.076 23.9785 7.076C24.2105 7.076 24.4145 7.088 24.5905 7.112C24.7745 7.128 24.9225 7.152 25.0345 7.184V7.016C25.0345 6.712 24.9425 6.468 24.7585 6.284C24.5745 6.1 24.2545 6.008 23.7985 6.008C23.4945 6.008 23.1945 6.032 22.8985 6.08C22.6025 6.12 22.3465 6.18 22.1305 6.26L21.9025 4.82C22.0065 4.788 22.1345 4.756 22.2865 4.724C22.4465 4.684 22.6185 4.652 22.8025 4.628C22.9865 4.596 23.1785 4.572 23.3785 4.556C23.5865 4.532 23.7945 4.52 24.0025 4.52ZM28.3673 4.904C28.6713 4.816 29.0633 4.736 29.5433 4.664C30.0233 4.584 30.5273 4.544 31.0553 4.544C31.5913 4.544 32.0353 4.616 32.3873 4.76C32.7473 4.896 33.0313 5.092 33.2393 5.348C33.4473 5.604 33.5953 5.908 33.6833 6.26C33.7713 6.612 33.8153 7.004 33.8153 7.436V11H32.0273V7.652C32.0273 7.076 31.9513 6.668 31.7993 6.428C31.6473 6.188 31.3633 6.068 30.9473 6.068C30.8193 6.068 30.6833 6.076 30.5393 6.092C30.3953 6.1 30.2673 6.112 30.1553 6.128V11H28.3673V4.904ZM36.9578 7.796C36.9578 8.348 37.0818 8.792 37.3298 9.128C37.5778 9.464 37.9458 9.632 38.4338 9.632C38.5938 9.632 38.7418 9.628 38.8778 9.62C39.0138 9.604 39.1258 9.588 39.2138 9.572V6.32C39.1018 6.248 38.9538 6.188 38.7698 6.14C38.5938 6.092 38.4138 6.068 38.2298 6.068C37.3818 6.068 36.9578 6.644 36.9578 7.796ZM41.0018 10.796C40.8418 10.844 40.6578 10.892 40.4498 10.94C40.2418 10.98 40.0218 11.016 39.7898 11.048C39.5658 11.08 39.3338 11.104 39.0938 11.12C38.8618 11.144 38.6378 11.156 38.4218 11.156C37.9018 11.156 37.4378 11.08 37.0298 10.928C36.6218 10.776 36.2778 10.56 35.9978 10.28C35.7178 9.992 35.5018 9.648 35.3498 9.248C35.2058 8.84 35.1338 8.384 35.1338 7.88C35.1338 7.368 35.1978 6.908 35.3258 6.5C35.4538 6.084 35.6378 5.732 35.8778 5.444C36.1178 5.156 36.4098 4.936 36.7538 4.784C37.1058 4.632 37.5058 4.556 37.9538 4.556C38.2018 4.556 38.4218 4.58 38.6138 4.628C38.8138 4.676 39.0138 4.744 39.2138 4.832V1.976L41.0018 1.688V10.796Z" fill="#464646"/>
<path d="M20.1706 24.7687C20.567 25.3571 21.433 25.3571 21.8294 24.7687L26.0123 18.5587C26.4597 17.8944 25.9838 17 25.1829 17H16.8171C16.0162 17 15.5403 17.8944 15.9877 18.5587L20.1706 24.7687Z" fill="#464646"/>
</svg>
