<svg width="319" height="59" viewBox="0 0 319 59" fill="none" xmlns="http://www.w3.org/2000/svg">
<path d="M12.5898 16.2953C13.4058 16.2953 14.0761 16.5868 14.659 17.1696C15.2127 17.7525 15.5333 18.4228 15.5333 19.2096C15.5333 19.6177 15.4459 19.9965 15.3001 20.3462C15.1544 20.7251 14.9504 21.0165 14.6881 21.2788C14.4259 21.5411 14.1053 21.7451 13.7264 21.8908C13.3767 22.0365 12.9978 22.0948 12.5898 22.0948V26C14.4841 26 16.087 25.3297 17.3985 24.0183C18.739 22.6777 19.4093 21.0748 19.4093 19.2096C19.4093 17.3445 18.739 15.7416 17.3985 14.401C16.087 13.0896 14.4841 12.4193 12.5898 12.4193H6.79035C5.9452 12.4193 5.27491 12.1279 4.69205 11.545C4.13833 10.9621 3.87604 10.2918 3.87604 9.47584C3.87604 9.09698 3.93432 8.71812 4.08004 8.3684C4.22575 8.01868 4.42976 7.69811 4.69205 7.43582C4.98348 7.14439 5.27491 6.94039 5.65377 6.79467C6.00349 6.64896 6.38235 6.59067 6.79035 6.59067V2.68549C4.89605 2.68549 3.29317 3.35578 1.98173 4.69637C0.670292 6.03695 0 7.61068 0 9.47584C0 11.3701 0.670292 12.973 1.98173 14.3136C3.29317 15.625 4.89605 16.2953 6.79035 16.2953H12.5898ZM42.4672 16.2953C43.2832 16.2953 43.9535 16.5868 44.5364 17.1696C45.0901 17.7525 45.4107 18.4228 45.4107 19.2096C45.4107 19.6177 45.3233 19.9965 45.1776 20.3462C45.0318 20.7251 44.8278 21.0165 44.5655 21.2788C44.3033 21.5411 43.9827 21.7451 43.6038 21.8908C43.2541 22.0365 42.8752 22.0948 42.4672 22.0948V26C44.3615 26 45.9644 25.3297 47.2759 24.0183C48.6164 22.6777 49.2867 21.0748 49.2867 19.2096C49.2867 17.3445 48.6164 15.7416 47.2759 14.401C45.9644 13.0896 44.3615 12.4193 42.4672 12.4193H36.6678C35.8226 12.4193 35.1523 12.1279 34.5695 11.545C34.0157 10.9621 33.7534 10.2918 33.7534 9.47584C33.7534 9.09698 33.8117 8.71812 33.9574 8.3684C34.1032 8.01868 34.3072 7.69811 34.5695 7.43582C34.8609 7.14439 35.1523 6.94039 35.5312 6.79467C35.8809 6.64896 36.2598 6.59067 36.6678 6.59067V2.68549C34.7735 2.68549 33.1706 3.35578 31.8591 4.69637C30.5477 6.03695 29.8774 7.61068 29.8774 9.47584C29.8774 11.3701 30.5477 12.973 31.8591 14.3136C33.1706 15.625 34.7735 16.2953 36.6678 16.2953H42.4672Z" fill="white"/>
<circle cx="29.3967" cy="23.7067" r="4.74138" fill="#FF7A00"/>
<path d="M10.7049 54.1377C10.5209 53.5988 10.3303 53.0666 10.1331 52.5408C9.936 52.0151 9.74543 51.4763 9.56143 50.9243H3.80486C3.62086 51.4763 3.43029 52.0217 3.23314 52.5606C3.04914 53.0863 2.86514 53.612 2.68114 54.1377H0.0985714C0.611143 52.6788 1.09743 51.3317 1.55743 50.0963C2.01743 48.8608 2.46429 47.6911 2.898 46.5871C3.34486 45.4831 3.78514 44.4317 4.21886 43.4328C4.65257 42.434 5.09943 41.4483 5.55943 40.4757H7.90543C8.36543 41.4483 8.81229 42.434 9.246 43.4328C9.67971 44.4317 10.1134 45.4831 10.5471 46.5871C10.994 47.6911 11.4474 48.8608 11.9074 50.0963C12.3806 51.3317 12.8734 52.6788 13.386 54.1377H10.7049ZM6.68314 43.1174C6.38086 43.814 6.03257 44.6617 5.63829 45.6606C5.25714 46.6594 4.85629 47.7437 4.43571 48.9134H8.93057C8.51 47.7437 8.10257 46.6528 7.70829 45.6408C7.314 44.6288 6.97229 43.7877 6.68314 43.1174ZM16.5979 48.9528C16.5979 50.0043 16.8476 50.8323 17.347 51.4368C17.8465 52.0283 18.5365 52.324 19.417 52.324C19.7982 52.324 20.1202 52.3108 20.383 52.2846C20.659 52.2451 20.8825 52.2057 21.0533 52.1663V46.252C20.843 46.1074 20.5605 45.976 20.2056 45.8577C19.8639 45.7263 19.4959 45.6606 19.1016 45.6606C18.2342 45.6606 17.5967 45.9563 17.1893 46.5477C16.795 47.1391 16.5979 47.9408 16.5979 48.9528ZM23.4387 53.8223C22.9656 53.9668 22.3676 54.0983 21.6447 54.2166C20.935 54.3348 20.1859 54.394 19.3973 54.394C18.5825 54.394 17.853 54.2691 17.209 54.0194C16.565 53.7697 16.013 53.4148 15.553 52.9548C15.1062 52.4817 14.7579 51.9166 14.5082 51.2594C14.2716 50.5891 14.1533 49.84 14.1533 49.012C14.1533 48.1971 14.2519 47.4611 14.449 46.804C14.6593 46.1337 14.9616 45.562 15.3559 45.0888C15.7502 44.6157 16.2299 44.2543 16.795 44.0046C17.3602 43.7417 18.0107 43.6103 18.7467 43.6103C19.2462 43.6103 19.6865 43.6694 20.0676 43.7877C20.4487 43.906 20.7773 44.0374 21.0533 44.182V39.2337L23.4387 38.8394V53.8223ZM29.1106 54.1377C28.4535 52.784 27.7766 51.2331 27.08 49.4851C26.3966 47.724 25.7723 45.838 25.2072 43.8271H27.7503C27.8949 44.4054 28.0592 45.0297 28.2432 45.7C28.4403 46.3571 28.644 47.0208 28.8543 47.6911C29.0777 48.3483 29.3012 48.9923 29.5246 49.6231C29.7612 50.2408 29.978 50.7994 30.1752 51.2988C30.3723 50.7994 30.5826 50.2408 30.806 49.6231C31.0295 48.9923 31.2463 48.3483 31.4566 47.6911C31.68 47.0208 31.8903 46.3571 32.0875 45.7C32.2846 45.0297 32.4555 44.4054 32.6 43.8271H35.0643C34.4992 45.838 33.8683 47.724 33.1717 49.4851C32.4883 51.2331 31.818 52.784 31.1609 54.1377H29.1106ZM40.4733 52.462C41.2093 52.462 41.7678 52.4226 42.149 52.3437V49.702C42.0176 49.6626 41.827 49.6231 41.5773 49.5837C41.3276 49.5443 41.0516 49.5246 40.7493 49.5246C40.4864 49.5246 40.217 49.5443 39.941 49.5837C39.6781 49.6231 39.435 49.6954 39.2116 49.8006C39.0013 49.9057 38.8304 50.0568 38.699 50.254C38.5676 50.438 38.5018 50.6746 38.5018 50.9637C38.5018 51.5288 38.6793 51.9231 39.0341 52.1466C39.389 52.3568 39.8687 52.462 40.4733 52.462ZM40.2761 43.5708C41.0647 43.5708 41.7284 43.6694 42.2673 43.8666C42.8061 44.0637 43.2333 44.3397 43.5487 44.6946C43.8773 45.0494 44.1073 45.4831 44.2387 45.9957C44.3833 46.4951 44.4556 47.0471 44.4556 47.6517V53.9011C44.0876 53.98 43.529 54.072 42.7798 54.1771C42.0438 54.2954 41.2093 54.3546 40.2761 54.3546C39.6584 54.3546 39.0933 54.2954 38.5807 54.1771C38.0681 54.0588 37.6278 53.8683 37.2598 53.6054C36.905 53.3426 36.6224 53.0008 36.4121 52.5803C36.215 52.1597 36.1164 51.6406 36.1164 51.0228C36.1164 50.4314 36.2281 49.932 36.4516 49.5246C36.6881 49.1171 37.0036 48.7886 37.3978 48.5388C37.7921 48.276 38.2456 48.092 38.7581 47.9868C39.2838 47.8686 39.8293 47.8094 40.3944 47.8094C40.6573 47.8094 40.9333 47.8291 41.2224 47.8686C41.5116 47.8948 41.8204 47.9474 42.149 48.0263V47.632C42.149 47.356 42.1161 47.0931 42.0504 46.8434C41.9847 46.5937 41.8664 46.3768 41.6956 46.1928C41.5378 45.9957 41.321 45.8446 41.045 45.7394C40.7821 45.6343 40.447 45.5817 40.0396 45.5817C39.4876 45.5817 38.9816 45.6211 38.5216 45.7C38.0616 45.7788 37.687 45.8708 37.3978 45.976L37.1021 44.044C37.4044 43.9388 37.8447 43.8337 38.423 43.7286C39.0013 43.6234 39.619 43.5708 40.2761 43.5708ZM47.3768 44.1623C47.8368 44.0308 48.4348 43.906 49.1708 43.7877C49.9068 43.6694 50.7217 43.6103 51.6154 43.6103C52.4565 43.6103 53.1597 43.7286 53.7248 43.9651C54.29 44.1886 54.7368 44.5106 55.0654 44.9311C55.4071 45.3386 55.6437 45.838 55.7751 46.4294C55.9197 47.0077 55.992 47.6451 55.992 48.3417V54.1377H53.6065V48.7163C53.6065 48.1643 53.5671 47.6977 53.4882 47.3166C53.4225 46.9223 53.3042 46.6068 53.1334 46.3703C52.9757 46.1206 52.7522 45.9431 52.4631 45.838C52.1871 45.7197 51.8454 45.6606 51.438 45.6606C51.1357 45.6606 50.8202 45.6803 50.4917 45.7197C50.1631 45.7591 49.92 45.792 49.7622 45.8183V54.1377H47.3768V44.1623ZM58.3372 48.9923C58.3372 48.23 58.4555 47.5203 58.692 46.8631C58.9286 46.1928 59.2638 45.6146 59.6975 45.1283C60.1443 44.642 60.6832 44.2608 61.314 43.9848C61.9449 43.7088 62.6546 43.5708 63.4432 43.5708C64.4158 43.5708 65.3358 43.7483 66.2032 44.1031L65.6906 46.0548C65.4146 45.9366 65.0992 45.838 64.7443 45.7591C64.4026 45.6803 64.0346 45.6408 63.6403 45.6408C62.7072 45.6408 61.9975 45.9366 61.5112 46.528C61.0249 47.1063 60.7818 47.9277 60.7818 48.9923C60.7818 50.0174 61.0118 50.8323 61.4718 51.4368C61.9318 52.0283 62.7072 52.324 63.798 52.324C64.2055 52.324 64.6063 52.2846 65.0006 52.2057C65.3949 52.1268 65.7366 52.0283 66.0258 51.91L66.3609 53.8814C66.098 54.0128 65.6972 54.1311 65.1583 54.2363C64.6326 54.3414 64.0872 54.394 63.522 54.394C62.6415 54.394 61.8726 54.2626 61.2155 53.9997C60.5715 53.7237 60.0326 53.3491 59.5989 52.876C59.1783 52.3897 58.8629 51.818 58.6526 51.1608C58.4423 50.4906 58.3372 49.7677 58.3372 48.9923ZM70.6129 54.1377H68.2274V43.8271H70.6129V54.1377ZM70.8692 40.8108C70.8692 41.2577 70.7246 41.6126 70.4354 41.8754C70.1463 42.1383 69.8046 42.2697 69.4103 42.2697C69.0029 42.2697 68.6546 42.1383 68.3654 41.8754C68.0763 41.6126 67.9317 41.2577 67.9317 40.8108C67.9317 40.3508 68.0763 39.9894 68.3654 39.7266C68.6546 39.4637 69.0029 39.3323 69.4103 39.3323C69.8046 39.3323 70.1463 39.4637 70.4354 39.7266C70.7246 39.9894 70.8692 40.3508 70.8692 40.8108ZM73.6561 44.1623C74.1161 44.0308 74.7141 43.906 75.4501 43.7877C76.1861 43.6694 77.001 43.6103 77.8947 43.6103C78.7358 43.6103 79.439 43.7286 80.0041 43.9651C80.5693 44.1886 81.0161 44.5106 81.3447 44.9311C81.6864 45.3386 81.923 45.838 82.0544 46.4294C82.199 47.0077 82.2712 47.6451 82.2712 48.3417V54.1377H79.8858V48.7163C79.8858 48.1643 79.8464 47.6977 79.7675 47.3166C79.7018 46.9223 79.5835 46.6068 79.4127 46.3703C79.255 46.1206 79.0315 45.9431 78.7424 45.838C78.4664 45.7197 78.1247 45.6606 77.7173 45.6606C77.415 45.6606 77.0995 45.6803 76.771 45.7197C76.4424 45.7591 76.1993 45.792 76.0415 45.8183V54.1377H73.6561V44.1623ZM87.0611 48.7163C87.0611 49.7283 87.2779 50.4708 87.7116 50.944C88.1585 51.404 88.7302 51.634 89.4268 51.634C89.8079 51.634 90.1628 51.5814 90.4913 51.4763C90.8331 51.3711 91.1091 51.2463 91.3193 51.1017V45.7591C91.1485 45.7197 90.9382 45.6868 90.6885 45.6606C90.4388 45.6211 90.1233 45.6014 89.7422 45.6014C88.8748 45.6014 88.2111 45.8906 87.7511 46.4688C87.2911 47.034 87.0611 47.7831 87.0611 48.7163ZM93.7048 53.0928C93.7048 54.7357 93.2842 55.9383 92.4431 56.7006C91.6151 57.4628 90.3402 57.844 88.6185 57.844C87.9876 57.844 87.3699 57.7914 86.7653 57.6863C86.1739 57.5811 85.6351 57.4431 85.1488 57.2723L85.5825 55.2417C85.9899 55.4126 86.4499 55.5506 86.9625 55.6557C87.4882 55.7608 88.0533 55.8134 88.6579 55.8134C89.6173 55.8134 90.3008 55.6163 90.7082 55.222C91.1156 54.8277 91.3193 54.2428 91.3193 53.4674V53.0731C91.0828 53.1914 90.7673 53.3097 90.3731 53.428C89.9919 53.5463 89.5516 53.6054 89.0522 53.6054C88.3951 53.6054 87.7905 53.5003 87.2385 53.29C86.6996 53.0797 86.2331 52.7708 85.8388 52.3634C85.4576 51.956 85.1553 51.45 84.9319 50.8454C84.7216 50.2277 84.6165 49.518 84.6165 48.7163C84.6165 47.9671 84.7282 47.2771 84.9516 46.6463C85.1882 46.0154 85.5233 45.4766 85.9571 45.0297C86.4039 44.5828 86.9428 44.2346 87.5736 43.9848C88.2045 43.7351 88.9208 43.6103 89.7225 43.6103C90.4979 43.6103 91.2339 43.6694 91.9305 43.7877C92.6271 43.906 93.2185 44.0308 93.7048 44.1623V53.0928ZM103.923 52.4226C104.554 52.4226 105.014 52.3503 105.303 52.2057C105.593 52.048 105.737 51.7851 105.737 51.4171C105.737 51.0754 105.579 50.7928 105.264 50.5694C104.962 50.346 104.456 50.1028 103.746 49.84C103.312 49.6823 102.911 49.518 102.543 49.3471C102.189 49.1631 101.88 48.9528 101.617 48.7163C101.354 48.4797 101.144 48.1971 100.986 47.8686C100.841 47.5268 100.769 47.1128 100.769 46.6266C100.769 45.6803 101.117 44.9377 101.814 44.3988C102.511 43.8468 103.457 43.5708 104.653 43.5708C105.257 43.5708 105.836 43.63 106.388 43.7483C106.94 43.8534 107.354 43.9586 107.63 44.0637L107.196 45.9957C106.933 45.8774 106.598 45.7723 106.191 45.6803C105.783 45.5751 105.31 45.5226 104.771 45.5226C104.285 45.5226 103.891 45.608 103.588 45.7788C103.286 45.9366 103.135 46.1863 103.135 46.528C103.135 46.6988 103.161 46.85 103.214 46.9814C103.279 47.1128 103.385 47.2377 103.529 47.356C103.674 47.4611 103.864 47.5728 104.101 47.6911C104.337 47.7963 104.627 47.908 104.968 48.0263C105.533 48.2366 106.013 48.4468 106.407 48.6571C106.802 48.8543 107.124 49.0843 107.373 49.3471C107.636 49.5968 107.827 49.886 107.945 50.2146C108.063 50.5431 108.123 50.9374 108.123 51.3974C108.123 52.3831 107.755 53.1323 107.019 53.6448C106.296 54.1443 105.257 54.394 103.904 54.394C102.997 54.394 102.267 54.3151 101.715 54.1574C101.163 54.0128 100.776 53.8946 100.552 53.8026L100.966 51.8114C101.321 51.956 101.742 52.094 102.228 52.2254C102.727 52.3568 103.293 52.4226 103.923 52.4226ZM117.192 49.0317C117.192 47.9671 116.949 47.1391 116.462 46.5477C115.989 45.9563 115.22 45.6606 114.156 45.6606C113.932 45.6606 113.696 45.6737 113.446 45.7C113.209 45.7131 112.973 45.7526 112.736 45.8183V51.7128C112.947 51.8574 113.223 51.9954 113.564 52.1268C113.919 52.2451 114.294 52.3043 114.688 52.3043C115.555 52.3043 116.186 52.0086 116.581 51.4171C116.988 50.8257 117.192 50.0306 117.192 49.0317ZM119.636 48.9923C119.636 49.7808 119.531 50.5037 119.321 51.1608C119.124 51.818 118.835 52.3831 118.453 52.8563C118.072 53.3294 117.593 53.6974 117.014 53.9603C116.449 54.2231 115.805 54.3546 115.082 54.3546C114.596 54.3546 114.149 54.2954 113.742 54.1771C113.334 54.0588 112.999 53.9274 112.736 53.7828V57.7848H110.351V44.1623C110.837 44.0308 111.435 43.906 112.145 43.7877C112.855 43.6694 113.604 43.6103 114.392 43.6103C115.207 43.6103 115.937 43.7351 116.581 43.9848C117.225 44.2346 117.77 44.596 118.217 45.0691C118.677 45.5291 119.025 46.0943 119.262 46.7646C119.511 47.4217 119.636 48.1643 119.636 48.9923ZM125.722 52.462C126.458 52.462 127.017 52.4226 127.398 52.3437V49.702C127.266 49.6626 127.076 49.6231 126.826 49.5837C126.576 49.5443 126.3 49.5246 125.998 49.5246C125.735 49.5246 125.466 49.5443 125.19 49.5837C124.927 49.6231 124.684 49.6954 124.46 49.8006C124.25 49.9057 124.079 50.0568 123.948 50.254C123.816 50.438 123.751 50.6746 123.751 50.9637C123.751 51.5288 123.928 51.9231 124.283 52.1466C124.638 52.3568 125.118 52.462 125.722 52.462ZM125.525 43.5708C126.314 43.5708 126.977 43.6694 127.516 43.8666C128.055 44.0637 128.482 44.3397 128.798 44.6946C129.126 45.0494 129.356 45.4831 129.488 45.9957C129.632 46.4951 129.704 47.0471 129.704 47.6517V53.9011C129.336 53.98 128.778 54.072 128.029 54.1771C127.293 54.2954 126.458 54.3546 125.525 54.3546C124.907 54.3546 124.342 54.2954 123.83 54.1771C123.317 54.0588 122.877 53.8683 122.509 53.6054C122.154 53.3426 121.871 53.0008 121.661 52.5803C121.464 52.1597 121.365 51.6406 121.365 51.0228C121.365 50.4314 121.477 49.932 121.7 49.5246C121.937 49.1171 122.252 48.7886 122.647 48.5388C123.041 48.276 123.494 48.092 124.007 47.9868C124.533 47.8686 125.078 47.8094 125.643 47.8094C125.906 47.8094 126.182 47.8291 126.471 47.8686C126.76 47.8948 127.069 47.9474 127.398 48.0263V47.632C127.398 47.356 127.365 47.0931 127.299 46.8434C127.234 46.5937 127.115 46.3768 126.944 46.1928C126.787 45.9957 126.57 45.8446 126.294 45.7394C126.031 45.6343 125.696 45.5817 125.288 45.5817C124.736 45.5817 124.23 45.6211 123.77 45.7C123.31 45.7788 122.936 45.8708 122.647 45.976L122.351 44.044C122.653 43.9388 123.094 43.8337 123.672 43.7286C124.25 43.6234 124.868 43.5708 125.525 43.5708ZM132.054 48.9923C132.054 48.23 132.172 47.5203 132.409 46.8631C132.645 46.1928 132.981 45.6146 133.414 45.1283C133.861 44.642 134.4 44.2608 135.031 43.9848C135.662 43.7088 136.371 43.5708 137.16 43.5708C138.133 43.5708 139.053 43.7483 139.92 44.1031L139.407 46.0548C139.131 45.9366 138.816 45.838 138.461 45.7591C138.119 45.6803 137.751 45.6408 137.357 45.6408C136.424 45.6408 135.714 45.9366 135.228 46.528C134.742 47.1063 134.499 47.9277 134.499 48.9923C134.499 50.0174 134.729 50.8323 135.189 51.4368C135.649 52.0283 136.424 52.324 137.515 52.324C137.922 52.324 138.323 52.2846 138.717 52.2057C139.112 52.1268 139.453 52.0283 139.743 51.91L140.078 53.8814C139.815 54.0128 139.414 54.1311 138.875 54.2363C138.349 54.3414 137.804 54.394 137.239 54.394C136.358 54.394 135.589 54.2626 134.932 53.9997C134.288 53.7237 133.749 53.3491 133.316 52.876C132.895 52.3897 132.58 51.818 132.369 51.1608C132.159 50.4906 132.054 49.7677 132.054 48.9923ZM141.353 49.0317C141.353 48.1248 141.484 47.3297 141.747 46.6463C142.023 45.9628 142.385 45.3977 142.831 44.9508C143.278 44.4908 143.791 44.1491 144.369 43.9257C144.947 43.6891 145.539 43.5708 146.143 43.5708C147.563 43.5708 148.667 44.0111 149.455 44.8917C150.257 45.7723 150.658 47.0866 150.658 48.8346C150.658 48.966 150.651 49.1171 150.638 49.288C150.638 49.4457 150.632 49.5903 150.619 49.7217H143.817C143.883 50.5497 144.172 51.1937 144.685 51.6537C145.21 52.1006 145.966 52.324 146.952 52.324C147.53 52.324 148.056 52.2714 148.529 52.1663C149.015 52.0611 149.396 51.9494 149.672 51.8311L149.988 53.7828C149.856 53.8486 149.672 53.9208 149.436 53.9997C149.212 54.0654 148.949 54.1246 148.647 54.1771C148.358 54.2428 148.043 54.2954 147.701 54.3348C147.359 54.3743 147.011 54.394 146.656 54.394C145.749 54.394 144.961 54.2626 144.29 53.9997C143.62 53.7237 143.068 53.3491 142.634 52.876C142.201 52.3897 141.879 51.8246 141.668 51.1806C141.458 50.5234 141.353 49.8071 141.353 49.0317ZM148.273 47.9671C148.273 47.6386 148.227 47.3297 148.135 47.0406C148.043 46.7383 147.905 46.482 147.721 46.2717C147.55 46.0483 147.333 45.8774 147.07 45.7591C146.82 45.6277 146.518 45.562 146.163 45.562C145.795 45.562 145.473 45.6343 145.197 45.7788C144.921 45.9103 144.685 46.0877 144.487 46.3111C144.303 46.5346 144.159 46.7908 144.054 47.08C143.949 47.3691 143.876 47.6648 143.837 47.9671H148.273ZM157.67 41.1066L160.055 40.7123V43.8271H163.722V45.8183H160.055V50.0174C160.055 50.8454 160.187 51.4368 160.45 51.7917C160.713 52.1466 161.159 52.324 161.79 52.324C162.224 52.324 162.605 52.278 162.934 52.186C163.275 52.094 163.545 52.0086 163.742 51.9297L164.136 53.8223C163.86 53.9406 163.499 54.0588 163.052 54.1771C162.605 54.3086 162.079 54.3743 161.475 54.3743C160.739 54.3743 160.121 54.2757 159.622 54.0786C159.135 53.8814 158.748 53.5988 158.459 53.2308C158.169 52.8497 157.966 52.3963 157.847 51.8706C157.729 51.3317 157.67 50.7206 157.67 50.0371V41.1066ZM171.903 45.976C171.706 45.9103 171.43 45.8446 171.075 45.7788C170.733 45.7 170.333 45.6606 169.873 45.6606C169.61 45.6606 169.327 45.6868 169.025 45.7394C168.736 45.792 168.532 45.838 168.414 45.8774V54.1377H166.028V44.32C166.488 44.1491 167.06 43.9914 167.743 43.8468C168.44 43.6891 169.209 43.6103 170.05 43.6103C170.208 43.6103 170.392 43.6234 170.602 43.6497C170.812 43.6628 171.023 43.6891 171.233 43.7286C171.443 43.7548 171.647 43.7943 171.844 43.8468C172.041 43.8863 172.199 43.9257 172.317 43.9651L171.903 45.976ZM177.607 52.462C178.343 52.462 178.901 52.4226 179.283 52.3437V49.702C179.151 49.6626 178.961 49.6231 178.711 49.5837C178.461 49.5443 178.185 49.5246 177.883 49.5246C177.62 49.5246 177.351 49.5443 177.075 49.5837C176.812 49.6231 176.569 49.6954 176.345 49.8006C176.135 49.9057 175.964 50.0568 175.833 50.254C175.701 50.438 175.635 50.6746 175.635 50.9637C175.635 51.5288 175.813 51.9231 176.168 52.1466C176.523 52.3568 177.002 52.462 177.607 52.462ZM177.41 43.5708C178.198 43.5708 178.862 43.6694 179.401 43.8666C179.94 44.0637 180.367 44.3397 180.682 44.6946C181.011 45.0494 181.241 45.4831 181.372 45.9957C181.517 46.4951 181.589 47.0471 181.589 47.6517V53.9011C181.221 53.98 180.663 54.072 179.913 54.1771C179.177 54.2954 178.343 54.3546 177.41 54.3546C176.792 54.3546 176.227 54.2954 175.714 54.1771C175.202 54.0588 174.761 53.8683 174.393 53.6054C174.039 53.3426 173.756 53.0008 173.546 52.5803C173.349 52.1597 173.25 51.6406 173.25 51.0228C173.25 50.4314 173.362 49.932 173.585 49.5246C173.822 49.1171 174.137 48.7886 174.531 48.5388C174.926 48.276 175.379 48.092 175.892 47.9868C176.417 47.8686 176.963 47.8094 177.528 47.8094C177.791 47.8094 178.067 47.8291 178.356 47.8686C178.645 47.8948 178.954 47.9474 179.283 48.0263V47.632C179.283 47.356 179.25 47.0931 179.184 46.8434C179.118 46.5937 179 46.3768 178.829 46.1928C178.671 45.9957 178.455 45.8446 178.179 45.7394C177.916 45.6343 177.581 45.5817 177.173 45.5817C176.621 45.5817 176.115 45.6211 175.655 45.7C175.195 45.7788 174.821 45.8708 174.531 45.976L174.236 44.044C174.538 43.9388 174.978 43.8337 175.557 43.7286C176.135 43.6234 176.753 43.5708 177.41 43.5708ZM183.939 48.9923C183.939 48.23 184.057 47.5203 184.294 46.8631C184.53 46.1928 184.865 45.6146 185.299 45.1283C185.746 44.642 186.285 44.2608 186.916 43.9848C187.546 43.7088 188.256 43.5708 189.045 43.5708C190.017 43.5708 190.937 43.7483 191.805 44.1031L191.292 46.0548C191.016 45.9366 190.701 45.838 190.346 45.7591C190.004 45.6803 189.636 45.6408 189.242 45.6408C188.309 45.6408 187.599 45.9366 187.113 46.528C186.626 47.1063 186.383 47.9277 186.383 48.9923C186.383 50.0174 186.613 50.8323 187.073 51.4368C187.533 52.0283 188.309 52.324 189.4 52.324C189.807 52.324 190.208 52.2846 190.602 52.2057C190.996 52.1268 191.338 52.0283 191.627 51.91L191.962 53.8814C191.7 54.0128 191.299 54.1311 190.76 54.2363C190.234 54.3414 189.689 54.394 189.124 54.394C188.243 54.394 187.474 54.2626 186.817 53.9997C186.173 53.7237 185.634 53.3491 185.2 52.876C184.78 52.3897 184.464 51.818 184.254 51.1608C184.044 50.4906 183.939 49.7677 183.939 48.9923ZM196.195 47.8488C196.497 47.5334 196.819 47.1983 197.161 46.8434C197.502 46.4754 197.838 46.114 198.166 45.7591C198.495 45.3911 198.804 45.0428 199.093 44.7143C199.395 44.3726 199.651 44.0768 199.862 43.8271H202.681C202.024 44.5631 201.327 45.3254 200.591 46.114C199.868 46.9026 199.139 47.6714 198.403 48.4206C198.797 48.7491 199.211 49.15 199.645 49.6231C200.078 50.0831 200.499 50.576 200.906 51.1017C201.314 51.6274 201.695 52.1531 202.05 52.6788C202.405 53.2046 202.7 53.6908 202.937 54.1377H200.177C199.94 53.7303 199.664 53.3031 199.349 52.8563C199.047 52.4094 198.718 51.9757 198.363 51.5551C198.008 51.1346 197.647 50.7403 197.279 50.3723C196.911 49.9911 196.55 49.6691 196.195 49.4063V54.1377H193.809V39.2337L196.195 38.8394V47.8488ZM207.073 54.1377H204.687V43.8271H207.073V54.1377ZM207.329 40.8108C207.329 41.2577 207.184 41.6126 206.895 41.8754C206.606 42.1383 206.264 42.2697 205.87 42.2697C205.463 42.2697 205.114 42.1383 204.825 41.8754C204.536 41.6126 204.392 41.2577 204.392 40.8108C204.392 40.3508 204.536 39.9894 204.825 39.7266C205.114 39.4637 205.463 39.3323 205.87 39.3323C206.264 39.3323 206.606 39.4637 206.895 39.7266C207.184 39.9894 207.329 40.3508 207.329 40.8108ZM210.116 44.1623C210.576 44.0308 211.174 43.906 211.91 43.7877C212.646 43.6694 213.461 43.6103 214.355 43.6103C215.196 43.6103 215.899 43.7286 216.464 43.9651C217.029 44.1886 217.476 44.5106 217.805 44.9311C218.146 45.3386 218.383 45.838 218.514 46.4294C218.659 47.0077 218.731 47.6451 218.731 48.3417V54.1377H216.346V48.7163C216.346 48.1643 216.306 47.6977 216.227 47.3166C216.162 46.9223 216.043 46.6068 215.873 46.3703C215.715 46.1206 215.491 45.9431 215.202 45.838C214.926 45.7197 214.585 45.6606 214.177 45.6606C213.875 45.6606 213.559 45.6803 213.231 45.7197C212.902 45.7591 212.659 45.792 212.501 45.8183V54.1377H210.116V44.1623ZM223.521 48.7163C223.521 49.7283 223.738 50.4708 224.171 50.944C224.618 51.404 225.19 51.634 225.887 51.634C226.268 51.634 226.623 51.5814 226.951 51.4763C227.293 51.3711 227.569 51.2463 227.779 51.1017V45.7591C227.608 45.7197 227.398 45.6868 227.148 45.6606C226.899 45.6211 226.583 45.6014 226.202 45.6014C225.335 45.6014 224.671 45.8906 224.211 46.4688C223.751 47.034 223.521 47.7831 223.521 48.7163ZM230.165 53.0928C230.165 54.7357 229.744 55.9383 228.903 56.7006C228.075 57.4628 226.8 57.844 225.078 57.844C224.447 57.844 223.83 57.7914 223.225 57.6863C222.634 57.5811 222.095 57.4431 221.609 57.2723L222.042 55.2417C222.45 55.4126 222.91 55.5506 223.422 55.6557C223.948 55.7608 224.513 55.8134 225.118 55.8134C226.077 55.8134 226.761 55.6163 227.168 55.222C227.575 54.8277 227.779 54.2428 227.779 53.4674V53.0731C227.543 53.1914 227.227 53.3097 226.833 53.428C226.452 53.5463 226.011 53.6054 225.512 53.6054C224.855 53.6054 224.25 53.5003 223.698 53.29C223.159 53.0797 222.693 52.7708 222.299 52.3634C221.917 51.956 221.615 51.45 221.392 50.8454C221.181 50.2277 221.076 49.518 221.076 48.7163C221.076 47.9671 221.188 47.2771 221.411 46.6463C221.648 46.0154 221.983 45.4766 222.417 45.0297C222.864 44.5828 223.403 44.2346 224.033 43.9848C224.664 43.7351 225.381 43.6103 226.182 43.6103C226.958 43.6103 227.694 43.6694 228.39 43.7877C229.087 43.906 229.678 44.0308 230.165 44.1623V53.0928ZM240.383 52.4226C241.014 52.4226 241.474 52.3503 241.763 52.2057C242.052 52.048 242.197 51.7851 242.197 51.4171C242.197 51.0754 242.039 50.7928 241.724 50.5694C241.421 50.346 240.915 50.1028 240.206 49.84C239.772 49.6823 239.371 49.518 239.003 49.3471C238.648 49.1631 238.339 48.9528 238.077 48.7163C237.814 48.4797 237.603 48.1971 237.446 47.8686C237.301 47.5268 237.229 47.1128 237.229 46.6266C237.229 45.6803 237.577 44.9377 238.274 44.3988C238.97 43.8468 239.917 43.5708 241.113 43.5708C241.717 43.5708 242.295 43.63 242.847 43.7483C243.399 43.8534 243.813 43.9586 244.089 44.0637L243.656 45.9957C243.393 45.8774 243.058 45.7723 242.65 45.6803C242.243 45.5751 241.77 45.5226 241.231 45.5226C240.745 45.5226 240.35 45.608 240.048 45.7788C239.746 45.9366 239.595 46.1863 239.595 46.528C239.595 46.6988 239.621 46.85 239.673 46.9814C239.739 47.1128 239.844 47.2377 239.989 47.356C240.133 47.4611 240.324 47.5728 240.561 47.6911C240.797 47.7963 241.086 47.908 241.428 48.0263C241.993 48.2366 242.473 48.4468 242.867 48.6571C243.261 48.8543 243.583 49.0843 243.833 49.3471C244.096 49.5968 244.287 49.886 244.405 50.2146C244.523 50.5431 244.582 50.9374 244.582 51.3974C244.582 52.3831 244.214 53.1323 243.478 53.6448C242.755 54.1443 241.717 54.394 240.363 54.394C239.457 54.394 238.727 54.3151 238.175 54.1574C237.623 54.0128 237.235 53.8946 237.012 53.8026L237.426 51.8114C237.781 51.956 238.201 52.094 238.688 52.2254C239.187 52.3568 239.752 52.4226 240.383 52.4226ZM256.136 48.9726C256.136 49.7874 256.017 50.53 255.781 51.2003C255.544 51.8706 255.209 52.4423 254.775 52.9154C254.342 53.3886 253.816 53.7566 253.198 54.0194C252.594 54.2823 251.923 54.4137 251.187 54.4137C250.451 54.4137 249.781 54.2823 249.176 54.0194C248.572 53.7566 248.053 53.3886 247.619 52.9154C247.185 52.4423 246.844 51.8706 246.594 51.2003C246.357 50.53 246.239 49.7874 246.239 48.9726C246.239 48.1577 246.357 47.4217 246.594 46.7646C246.844 46.0943 247.185 45.5226 247.619 45.0494C248.066 44.5763 248.592 44.2148 249.196 43.9651C249.801 43.7023 250.464 43.5708 251.187 43.5708C251.91 43.5708 252.574 43.7023 253.178 43.9651C253.796 44.2148 254.322 44.5763 254.756 45.0494C255.189 45.5226 255.524 46.0943 255.761 46.7646C256.011 47.4217 256.136 48.1577 256.136 48.9726ZM253.691 48.9726C253.691 47.9474 253.468 47.1391 253.021 46.5477C252.587 45.9431 251.976 45.6408 251.187 45.6408C250.399 45.6408 249.781 45.9431 249.334 46.5477C248.9 47.1391 248.684 47.9474 248.684 48.9726C248.684 50.0108 248.9 50.8323 249.334 51.4368C249.781 52.0414 250.399 52.3437 251.187 52.3437C251.976 52.3437 252.587 52.0414 253.021 51.4368C253.468 50.8323 253.691 50.0108 253.691 48.9726ZM262.792 38.8394C263.344 38.8394 263.83 38.892 264.251 38.9971C264.672 39.0891 264.987 39.1746 265.197 39.2534L264.744 41.2248C264.52 41.1197 264.258 41.0343 263.955 40.9686C263.666 40.9028 263.351 40.87 263.009 40.87C262.628 40.87 262.306 40.9291 262.043 41.0474C261.78 41.1526 261.57 41.3037 261.412 41.5008C261.254 41.698 261.143 41.9411 261.077 42.2303C261.011 42.5063 260.978 42.8086 260.978 43.1371V43.8271H264.724V45.8183H260.978V54.1377H258.593V43.0977C258.593 41.7703 258.941 40.732 259.638 39.9828C260.334 39.2206 261.386 38.8394 262.792 38.8394ZM266.368 41.1066L268.754 40.7123V43.8271H272.42V45.8183H268.754V50.0174C268.754 50.8454 268.885 51.4368 269.148 51.7917C269.411 52.1466 269.858 52.324 270.488 52.324C270.922 52.324 271.303 52.278 271.632 52.186C271.974 52.094 272.243 52.0086 272.44 51.9297L272.834 53.8223C272.558 53.9406 272.197 54.0588 271.75 54.1771C271.303 54.3086 270.778 54.3743 270.173 54.3743C269.437 54.3743 268.819 54.2757 268.32 54.0786C267.834 53.8814 267.446 53.5988 267.157 53.2308C266.868 52.8497 266.664 52.3963 266.546 51.8706C266.427 51.3317 266.368 50.7206 266.368 50.0371V41.1066ZM280.877 47.6517C280.575 48.8083 280.246 49.9386 279.892 51.0426C279.55 52.1334 279.208 53.1651 278.866 54.1377H276.915C276.652 53.5331 276.376 52.8431 276.087 52.0677C275.798 51.2923 275.508 50.4643 275.219 49.5837C274.93 48.7031 274.641 47.7766 274.352 46.804C274.063 45.8314 273.78 44.8391 273.504 43.8271H276.028C276.146 44.3791 276.284 44.9771 276.442 45.6211C276.599 46.252 276.764 46.9026 276.934 47.5728C277.105 48.23 277.283 48.874 277.467 49.5048C277.651 50.1357 277.835 50.714 278.019 51.2397C278.216 50.6351 278.406 50.0108 278.59 49.3668C278.788 48.7228 278.972 48.0788 279.142 47.4348C279.313 46.7908 279.471 46.1666 279.616 45.562C279.773 44.9443 279.911 44.366 280.03 43.8271H281.863C281.981 44.366 282.113 44.9443 282.257 45.562C282.402 46.1666 282.553 46.7908 282.711 47.4348C282.882 48.0788 283.059 48.7228 283.243 49.3668C283.44 50.0108 283.637 50.6351 283.834 51.2397C284.005 50.714 284.183 50.1357 284.367 49.5048C284.551 48.874 284.728 48.23 284.899 47.5728C285.083 46.9026 285.254 46.252 285.412 45.6211C285.569 44.9771 285.707 44.3791 285.826 43.8271H288.29C288.014 44.8391 287.731 45.8314 287.442 46.804C287.153 47.7766 286.864 48.7031 286.575 49.5837C286.286 50.4643 285.996 51.2923 285.707 52.0677C285.418 52.8431 285.136 53.5331 284.86 54.1377H282.928C282.586 53.1651 282.231 52.1334 281.863 51.0426C281.508 49.9386 281.18 48.8083 280.877 47.6517ZM293.736 52.462C294.472 52.462 295.031 52.4226 295.412 52.3437V49.702C295.281 49.6626 295.09 49.6231 294.84 49.5837C294.591 49.5443 294.315 49.5246 294.012 49.5246C293.75 49.5246 293.48 49.5443 293.204 49.5837C292.941 49.6231 292.698 49.6954 292.475 49.8006C292.264 49.9057 292.094 50.0568 291.962 50.254C291.831 50.438 291.765 50.6746 291.765 50.9637C291.765 51.5288 291.942 51.9231 292.297 52.1466C292.652 52.3568 293.132 52.462 293.736 52.462ZM293.539 43.5708C294.328 43.5708 294.992 43.6694 295.53 43.8666C296.069 44.0637 296.496 44.3397 296.812 44.6946C297.14 45.0494 297.37 45.4831 297.502 45.9957C297.646 46.4951 297.719 47.0471 297.719 47.6517V53.9011C297.351 53.98 296.792 54.072 296.043 54.1771C295.307 54.2954 294.472 54.3546 293.539 54.3546C292.922 54.3546 292.356 54.2954 291.844 54.1771C291.331 54.0588 290.891 53.8683 290.523 53.6054C290.168 53.3426 289.886 53.0008 289.675 52.5803C289.478 52.1597 289.38 51.6406 289.38 51.0228C289.38 50.4314 289.491 49.932 289.715 49.5246C289.951 49.1171 290.267 48.7886 290.661 48.5388C291.055 48.276 291.509 48.092 292.021 47.9868C292.547 47.8686 293.092 47.8094 293.658 47.8094C293.92 47.8094 294.196 47.8291 294.486 47.8686C294.775 47.8948 295.084 47.9474 295.412 48.0263V47.632C295.412 47.356 295.379 47.0931 295.314 46.8434C295.248 46.5937 295.13 46.3768 294.959 46.1928C294.801 45.9957 294.584 45.8446 294.308 45.7394C294.045 45.6343 293.71 45.5817 293.303 45.5817C292.751 45.5817 292.245 45.6211 291.785 45.7C291.325 45.7788 290.95 45.8708 290.661 45.976L290.365 44.044C290.668 43.9388 291.108 43.8337 291.686 43.7286C292.264 43.6234 292.882 43.5708 293.539 43.5708ZM306.515 45.976C306.318 45.9103 306.042 45.8446 305.687 45.7788C305.345 45.7 304.944 45.6606 304.484 45.6606C304.221 45.6606 303.939 45.6868 303.636 45.7394C303.347 45.792 303.144 45.838 303.025 45.8774V54.1377H300.64V44.32C301.1 44.1491 301.672 43.9914 302.355 43.8468C303.052 43.6891 303.82 43.6103 304.662 43.6103C304.819 43.6103 305.003 43.6234 305.214 43.6497C305.424 43.6628 305.634 43.6891 305.844 43.7286C306.055 43.7548 306.258 43.7943 306.456 43.8468C306.653 43.8863 306.81 43.9257 306.929 43.9651L306.515 45.976ZM308.019 49.0317C308.019 48.1248 308.151 47.3297 308.414 46.6463C308.69 45.9628 309.051 45.3977 309.498 44.9508C309.945 44.4908 310.457 44.1491 311.036 43.9257C311.614 43.6891 312.205 43.5708 312.81 43.5708C314.229 43.5708 315.333 44.0111 316.122 44.8917C316.924 45.7723 317.325 47.0866 317.325 48.8346C317.325 48.966 317.318 49.1171 317.305 49.288C317.305 49.4457 317.298 49.5903 317.285 49.7217H310.484C310.549 50.5497 310.839 51.1937 311.351 51.6537C311.877 52.1006 312.633 52.324 313.618 52.324C314.197 52.324 314.722 52.2714 315.195 52.1663C315.682 52.0611 316.063 51.9494 316.339 51.8311L316.654 53.7828C316.523 53.8486 316.339 53.9208 316.102 53.9997C315.879 54.0654 315.616 54.1246 315.314 54.1771C315.025 54.2428 314.709 54.2954 314.367 54.3348C314.026 54.3743 313.677 54.394 313.323 54.394C312.416 54.394 311.627 54.2626 310.957 53.9997C310.287 53.7237 309.735 53.3491 309.301 52.876C308.867 52.3897 308.545 51.8246 308.335 51.1806C308.125 50.5234 308.019 49.8071 308.019 49.0317ZM314.939 47.9671C314.939 47.6386 314.893 47.3297 314.801 47.0406C314.709 46.7383 314.571 46.482 314.387 46.2717C314.216 46.0483 313.999 45.8774 313.737 45.7591C313.487 45.6277 313.185 45.562 312.83 45.562C312.462 45.562 312.14 45.6343 311.864 45.7788C311.588 45.9103 311.351 46.0877 311.154 46.3111C310.97 46.5346 310.825 46.7908 310.72 47.08C310.615 47.3691 310.543 47.6648 310.503 47.9671H314.939Z" fill="#6B6B6B"/>
</svg>
