<svg width="29" height="18" viewBox="0 0 29 18" fill="none" xmlns="http://www.w3.org/2000/svg">
<path d="M6.63828 8.883C7.06853 8.883 7.42196 9.03666 7.72929 9.34399C8.02125 9.65131 8.19028 10.0047 8.19028 10.4196C8.19028 10.6348 8.14418 10.8345 8.06735 11.0189C7.99052 11.2187 7.88295 11.3723 7.74466 11.5106C7.60636 11.6489 7.43733 11.7565 7.23757 11.8333C7.05317 11.9102 6.85341 11.9409 6.63828 11.9409V14C7.63709 14 8.48224 13.6466 9.17373 12.9551C9.88058 12.2482 10.234 11.4031 10.234 10.4196C10.234 9.43618 9.88058 8.59103 9.17373 7.88418C8.48224 7.19269 7.63709 6.83927 6.63828 6.83927H3.58037C3.13474 6.83927 2.78131 6.6856 2.47399 6.37828C2.18203 6.07095 2.04373 5.71752 2.04373 5.28726C2.04373 5.0875 2.07446 4.88774 2.15129 4.70334C2.22813 4.51894 2.33569 4.34991 2.47399 4.21162C2.62765 4.05795 2.78131 3.95039 2.98108 3.87356C3.16547 3.79672 3.36524 3.76599 3.58037 3.76599V1.7069C2.58155 1.7069 1.7364 2.06032 1.04491 2.76718C0.353427 3.47403 0 4.30381 0 5.28726C0 6.28608 0.353427 7.13123 1.04491 7.83808C1.7364 8.52957 2.58155 8.883 3.58037 8.883H6.63828ZM22.3918 8.883C22.8221 8.883 23.1755 9.03666 23.4828 9.34399C23.7748 9.65131 23.9438 10.0047 23.9438 10.4196C23.9438 10.6348 23.8977 10.8345 23.8209 11.0189C23.7441 11.2187 23.6365 11.3723 23.4982 11.5106C23.3599 11.6489 23.1909 11.7565 22.9911 11.8333C22.8067 11.9102 22.6069 11.9409 22.3918 11.9409V14C23.3906 14 24.2358 13.6466 24.9273 12.9551C25.6341 12.2482 25.9875 11.4031 25.9875 10.4196C25.9875 9.43618 25.6341 8.59103 24.9273 7.88418C24.2358 7.19269 23.3906 6.83927 22.3918 6.83927H19.3339C18.8883 6.83927 18.5349 6.6856 18.2275 6.37828C17.9356 6.07095 17.7973 5.71752 17.7973 5.28726C17.7973 5.0875 17.828 4.88774 17.9048 4.70334C17.9817 4.51894 18.0892 4.34991 18.2275 4.21162C18.3812 4.05795 18.5349 3.95039 18.7346 3.87356C18.919 3.79672 19.1188 3.76599 19.3339 3.76599V1.7069C18.3351 1.7069 17.4899 2.06032 16.7985 2.76718C16.107 3.47403 15.7535 4.30381 15.7535 5.28726C15.7535 6.28608 16.107 7.13123 16.7985 7.83808C17.4899 8.52957 18.3351 8.883 19.3339 8.883H22.3918Z" fill="white"/>
<circle cx="15.5" cy="12.5" r="2.5" fill="#FF7A00"/>
</svg>
