<svg width="18" height="18" viewBox="0 0 18 18" fill="none" xmlns="http://www.w3.org/2000/svg">
<path fill-rule="evenodd" clip-rule="evenodd" d="M18 9C18 11.3869 17.0518 13.6761 15.364 15.364C13.6761 17.0518 11.3869 18 9 18C6.61305 18 4.32387 17.0518 2.63604 15.364C0.948212 13.6761 0 11.3869 0 9C0 6.61305 0.948212 4.32387 2.63604 2.63604C4.32387 0.948212 6.61305 0 9 0C11.3869 0 13.6761 0.948212 15.364 2.63604C17.0518 4.32387 18 6.61305 18 9V9ZM8.60175 11.9767C8.49613 12.0824 8.43679 12.2256 8.43679 12.375C8.43679 12.5244 8.49613 12.6676 8.60175 12.7733C8.70737 12.8789 8.85063 12.9382 9 12.9382C9.14937 12.9382 9.29263 12.8789 9.39825 12.7733L12.7733 9.39825C12.8256 9.346 12.8672 9.28393 12.8956 9.21559C12.9239 9.14725 12.9385 9.07399 12.9385 9C12.9385 8.92601 12.9239 8.85275 12.8956 8.78441C12.8672 8.71607 12.8256 8.654 12.7733 8.60175L9.39825 5.22675C9.34595 5.17445 9.28386 5.13296 9.21553 5.10466C9.1472 5.07636 9.07396 5.06179 9 5.06179C8.92604 5.06179 8.8528 5.07636 8.78447 5.10466C8.71614 5.13296 8.65405 5.17445 8.60175 5.22675C8.54945 5.27905 8.50796 5.34114 8.47966 5.40947C8.45136 5.4778 8.43679 5.55104 8.43679 5.625C8.43679 5.69896 8.45136 5.7722 8.47966 5.84053C8.50796 5.90886 8.54945 5.97095 8.60175 6.02325L11.0171 8.4375H5.625C5.47582 8.4375 5.33274 8.49676 5.22725 8.60225C5.12176 8.70774 5.0625 8.85082 5.0625 9C5.0625 9.14918 5.12176 9.29226 5.22725 9.39775C5.33274 9.50324 5.47582 9.5625 5.625 9.5625H11.0171L8.60175 11.9767V11.9767Z" fill="black"/>
</svg>
