<svg width="12" height="11" viewBox="0 0 12 11" fill="none" xmlns="http://www.w3.org/2000/svg">
<path d="M3.11193 0.885918L2.31012 0.0841062C0.964417 1.1102 0.0784991 2.6914 0 4.48566H1.12142C1.16113 3.77458 1.36074 3.08161 1.70538 2.45836C2.05001 1.83511 2.53079 1.29762 3.11193 0.885918V0.885918ZM10.0591 4.48566H11.1805C11.0964 2.6914 10.2105 1.1102 8.8704 0.0841062L8.07419 0.885918C8.65284 1.29965 9.13148 1.83773 9.47496 2.46065C9.81844 3.08356 10.018 3.77551 10.0591 4.48566ZM8.9545 4.76602C8.9545 3.04464 8.03494 1.60362 6.43132 1.22234V0.841062C6.43132 0.375674 6.05564 0 5.59026 0C5.12487 0 4.7492 0.375674 4.7492 0.841062V1.22234C3.13996 1.60362 2.22601 3.03904 2.22601 4.76602V7.56955L1.10459 8.69097V9.25168H10.0759V8.69097L8.9545 7.56955V4.76602ZM5.59026 10.9338C5.66876 10.9338 5.74165 10.9282 5.81454 10.9114C6.179 10.8329 6.47618 10.5862 6.62196 10.2497C6.67803 10.1152 6.70607 9.96938 6.70607 9.81239H4.46323C4.46884 10.4292 4.96787 10.9338 5.59026 10.9338Z" fill="#B0B0B0"/>
</svg>
