<svg width="328" height="128" viewBox="0 0 328 128" fill="none" xmlns="http://www.w3.org/2000/svg">
<g filter="url(#filter0_d)">
<path d="M133.447 33.3848C135.096 33.3848 136.451 33.9739 137.629 35.1519C138.748 36.33 139.396 37.6848 139.396 39.2753C139.396 40.0999 139.219 40.8657 138.925 41.5725C138.63 42.3383 138.218 42.9273 137.688 43.4575C137.158 43.9876 136.51 44.3999 135.744 44.6945C135.037 44.989 134.271 45.1068 133.447 45.1068V53C137.276 53 140.515 51.6452 143.166 48.9945C145.876 46.2849 147.23 43.0451 147.23 39.2753C147.23 35.5054 145.876 32.2656 143.166 29.556C140.515 26.9053 137.276 25.5505 133.447 25.5505H121.725C120.017 25.5505 118.662 24.9615 117.484 23.7834C116.364 22.6053 115.834 21.2505 115.834 19.6012C115.834 18.8354 115.952 18.0697 116.247 17.3628C116.541 16.6559 116.953 16.008 117.484 15.4779C118.073 14.8888 118.662 14.4765 119.427 14.182C120.134 13.8874 120.9 13.7696 121.725 13.7696V5.87643C117.896 5.87643 114.656 7.23123 112.006 9.94084C109.355 12.6504 108 15.8313 108 19.6012C108 23.43 109.355 26.6697 112.006 29.3793C114.656 32.03 117.896 33.3848 121.725 33.3848H133.447ZM193.835 33.3848C195.485 33.3848 196.839 33.9739 198.018 35.1519C199.137 36.33 199.785 37.6848 199.785 39.2753C199.785 40.0999 199.608 40.8657 199.313 41.5725C199.019 42.3383 198.607 42.9273 198.076 43.4575C197.546 43.9876 196.898 44.3999 196.133 44.6945C195.426 44.989 194.66 45.1068 193.835 45.1068V53C197.664 53 200.904 51.6452 203.555 48.9945C206.264 46.2849 207.619 43.0451 207.619 39.2753C207.619 35.5054 206.264 32.2656 203.555 29.556C200.904 26.9053 197.664 25.5505 193.835 25.5505H182.113C180.405 25.5505 179.05 24.9615 177.872 23.7834C176.753 22.6053 176.223 21.2505 176.223 19.6012C176.223 18.8354 176.341 18.0697 176.635 17.3628C176.93 16.6559 177.342 16.008 177.872 15.4779C178.461 14.8888 179.05 14.4765 179.816 14.182C180.523 13.8874 181.289 13.7696 182.113 13.7696V5.87643C178.285 5.87643 175.045 7.23123 172.394 9.94084C169.743 12.6504 168.389 15.8313 168.389 19.6012C168.389 23.43 169.743 26.6697 172.394 29.3793C175.045 32.03 178.285 33.3848 182.113 33.3848H193.835Z" fill="white"/>
<circle cx="167.417" cy="47.9167" r="9.58333" fill="#FF7A00"/>
</g>
<path d="M10.8592 124C10.7146 123.527 10.5503 123.041 10.3663 122.541C10.1955 122.042 10.0246 121.542 9.85377 121.043H4.53091C4.36006 121.542 4.18263 122.042 3.99863 122.541C3.82777 123.041 3.67006 123.527 3.52549 124H0.331771C0.844343 122.528 1.33063 121.168 1.79063 119.919C2.25063 118.671 2.69749 117.494 3.1312 116.39C3.57806 115.286 4.01177 114.241 4.43234 113.256C4.86606 112.257 5.31291 111.284 5.77291 110.338H8.71034C9.1572 111.284 9.59749 112.257 10.0312 113.256C10.4649 114.241 10.8986 115.286 11.3323 116.39C11.7792 117.494 12.2326 118.671 12.6926 119.919C13.1526 121.168 13.6389 122.528 14.1515 124H10.8592ZM7.17263 113.433C7.10691 113.63 7.00834 113.9 6.87691 114.241C6.74549 114.583 6.59434 114.977 6.42349 115.424C6.25263 115.871 6.06206 116.364 5.85177 116.903C5.65463 117.442 5.45091 118.007 5.24063 118.598H9.12434C8.91406 118.007 8.71034 117.442 8.5132 116.903C8.31606 116.364 8.12549 115.871 7.94149 115.424C7.77063 114.977 7.61949 114.583 7.48806 114.241C7.35663 113.9 7.25149 113.63 7.17263 113.433ZM18.0147 118.736C18.0147 119.643 18.2184 120.373 18.6259 120.925C19.0333 121.477 19.6379 121.753 20.4396 121.753C20.7024 121.753 20.9456 121.746 21.169 121.733C21.3924 121.707 21.5764 121.68 21.721 121.654V116.311C21.537 116.193 21.2939 116.095 20.9916 116.016C20.7024 115.937 20.4067 115.897 20.1044 115.897C18.7113 115.897 18.0147 116.844 18.0147 118.736ZM24.6584 123.665C24.3956 123.744 24.0933 123.823 23.7516 123.901C23.4099 123.967 23.0484 124.026 22.6673 124.079C22.2993 124.131 21.9181 124.171 21.5239 124.197C21.1427 124.237 20.7747 124.256 20.4199 124.256C19.5656 124.256 18.8033 124.131 18.133 123.882C17.4627 123.632 16.8976 123.277 16.4376 122.817C15.9776 122.344 15.6227 121.779 15.373 121.122C15.1364 120.451 15.0181 119.702 15.0181 118.874C15.0181 118.033 15.1233 117.277 15.3336 116.607C15.5439 115.924 15.8461 115.345 16.2404 114.872C16.6347 114.399 17.1144 114.038 17.6796 113.788C18.2579 113.538 18.915 113.413 19.651 113.413C20.0584 113.413 20.4199 113.453 20.7353 113.532C21.0639 113.611 21.3924 113.722 21.721 113.867V109.175L24.6584 108.702V123.665ZM29.92 124C29.2497 122.686 28.5663 121.148 27.8697 119.387C27.1863 117.626 26.5357 115.707 25.918 113.63H29.0328C29.1643 114.143 29.3154 114.701 29.4863 115.306C29.6703 115.897 29.8543 116.502 30.0383 117.12C30.2354 117.724 30.426 118.316 30.61 118.894C30.8071 119.472 30.9977 119.998 31.1817 120.471C31.3526 119.998 31.5366 119.472 31.7337 118.894C31.9308 118.316 32.1214 117.724 32.3054 117.12C32.5026 116.502 32.6866 115.897 32.8574 115.306C33.0414 114.701 33.1991 114.143 33.3306 113.63H36.3666C35.7488 115.707 35.0917 117.626 34.3951 119.387C33.7117 121.148 33.0348 122.686 32.3646 124H29.92ZM41.7099 121.95C41.999 121.95 42.275 121.943 42.5379 121.93C42.8008 121.917 43.011 121.897 43.1688 121.871V119.643C43.0505 119.617 42.873 119.591 42.6365 119.564C42.3999 119.538 42.183 119.525 41.9859 119.525C41.7099 119.525 41.447 119.545 41.1973 119.584C40.9608 119.61 40.7505 119.669 40.5665 119.761C40.3825 119.853 40.2379 119.978 40.1328 120.136C40.0276 120.294 39.975 120.491 39.975 120.727C39.975 121.187 40.1262 121.509 40.4285 121.693C40.7439 121.864 41.171 121.95 41.7099 121.95ZM41.4733 113.354C42.3408 113.354 43.0636 113.453 43.6419 113.65C44.2202 113.847 44.6802 114.13 45.0219 114.498C45.3768 114.866 45.6265 115.313 45.771 115.838C45.9156 116.364 45.9879 116.949 45.9879 117.593V123.704C45.5673 123.796 44.9825 123.901 44.2333 124.02C43.4842 124.151 42.5773 124.217 41.5128 124.217C40.8425 124.217 40.2313 124.158 39.6793 124.039C39.1405 123.921 38.6739 123.731 38.2796 123.468C37.8853 123.192 37.583 122.837 37.3728 122.403C37.1625 121.969 37.0573 121.437 37.0573 120.806C37.0573 120.202 37.1756 119.689 37.4122 119.269C37.6619 118.848 37.9905 118.513 38.3979 118.263C38.8053 118.013 39.2719 117.836 39.7976 117.731C40.3233 117.613 40.8688 117.553 41.4339 117.553C41.815 117.553 42.1502 117.573 42.4393 117.613C42.7416 117.639 42.9848 117.678 43.1688 117.731V117.455C43.1688 116.955 43.0176 116.555 42.7153 116.252C42.413 115.95 41.8873 115.799 41.1382 115.799C40.6388 115.799 40.1459 115.838 39.6596 115.917C39.1733 115.983 38.7528 116.081 38.3979 116.213L38.0233 113.847C38.1942 113.795 38.4045 113.742 38.6542 113.689C38.917 113.624 39.1996 113.571 39.5019 113.532C39.8042 113.479 40.1196 113.44 40.4482 113.413C40.7899 113.374 41.1316 113.354 41.4733 113.354ZM48.6441 113.985C49.1435 113.841 49.7875 113.709 50.5761 113.591C51.3647 113.459 52.1927 113.394 53.0601 113.394C53.9407 113.394 54.6701 113.512 55.2484 113.749C55.8398 113.972 56.3064 114.294 56.6481 114.715C56.9898 115.135 57.2329 115.635 57.3775 116.213C57.5221 116.791 57.5944 117.435 57.5944 118.145V124H54.6569V118.5C54.6569 117.553 54.5321 116.883 54.2824 116.489C54.0327 116.095 53.5661 115.897 52.8827 115.897C52.6724 115.897 52.4489 115.911 52.2124 115.937C51.9758 115.95 51.7655 115.97 51.5815 115.996V124H48.6441V113.985ZM59.7603 118.815C59.7603 118.066 59.8786 117.363 60.1152 116.706C60.3649 116.035 60.7198 115.457 61.1798 114.971C61.6398 114.471 62.1983 114.077 62.8555 113.788C63.5126 113.499 64.2618 113.354 65.1029 113.354C65.6549 113.354 66.1609 113.407 66.6209 113.512C67.0809 113.604 67.5278 113.742 67.9615 113.926L67.3503 116.272C67.0743 116.167 66.772 116.075 66.4435 115.996C66.1149 115.917 65.7469 115.878 65.3395 115.878C64.472 115.878 63.8215 116.147 63.3878 116.686C62.9672 117.225 62.7569 117.935 62.7569 118.815C62.7569 119.748 62.954 120.471 63.3483 120.984C63.7558 121.496 64.4589 121.753 65.4578 121.753C65.8126 121.753 66.1938 121.72 66.6012 121.654C67.0086 121.588 67.3832 121.483 67.7249 121.339L68.1389 123.744C67.7972 123.888 67.37 124.013 66.8575 124.118C66.3449 124.223 65.7798 124.276 65.162 124.276C64.2158 124.276 63.4009 124.138 62.7175 123.862C62.034 123.573 61.4689 123.185 61.022 122.699C60.5883 122.213 60.2663 121.641 60.056 120.984C59.8589 120.313 59.7603 119.591 59.7603 118.815ZM73.0478 124H70.1103V113.63H73.0478V124ZM73.3238 110.634C73.3238 111.173 73.1463 111.6 72.7915 111.915C72.4498 112.217 72.0423 112.369 71.5692 112.369C71.096 112.369 70.682 112.217 70.3272 111.915C69.9855 111.6 69.8146 111.173 69.8146 110.634C69.8146 110.095 69.9855 109.674 70.3272 109.372C70.682 109.057 71.096 108.899 71.5692 108.899C72.0423 108.899 72.4498 109.057 72.7915 109.372C73.1463 109.674 73.3238 110.095 73.3238 110.634ZM75.809 113.985C76.3084 113.841 76.9524 113.709 77.741 113.591C78.5296 113.459 79.3576 113.394 80.225 113.394C81.1056 113.394 81.835 113.512 82.4133 113.749C83.0047 113.972 83.4713 114.294 83.813 114.715C84.1547 115.135 84.3978 115.635 84.5424 116.213C84.687 116.791 84.7593 117.435 84.7593 118.145V124H81.8218V118.5C81.8218 117.553 81.697 116.883 81.4473 116.489C81.1976 116.095 80.731 115.897 80.0476 115.897C79.8373 115.897 79.6138 115.911 79.3773 115.937C79.1407 115.95 78.9304 115.97 78.7464 115.996V124H75.809V113.985ZM89.9218 118.48C89.9218 120.123 90.5855 120.944 91.9129 120.944C92.2152 120.944 92.4978 120.905 92.7607 120.826C93.0235 120.747 93.2469 120.655 93.4309 120.55V115.858C93.2864 115.832 93.1155 115.812 92.9184 115.799C92.7212 115.773 92.4912 115.759 92.2284 115.759C91.4529 115.759 90.8747 116.016 90.4935 116.528C90.1124 117.041 89.9218 117.691 89.9218 118.48ZM96.3684 122.699C96.3684 124.394 95.9347 125.649 95.0672 126.464C94.2129 127.292 92.8855 127.706 91.0849 127.706C90.4541 127.706 89.8232 127.647 89.1924 127.529C88.5615 127.424 87.9767 127.279 87.4378 127.095L87.9504 124.631C88.4104 124.815 88.8901 124.959 89.3895 125.065C89.9021 125.17 90.4804 125.222 91.1244 125.222C91.9655 125.222 92.5569 125.038 92.8987 124.67C93.2535 124.302 93.4309 123.829 93.4309 123.251V122.876C93.1155 123.021 92.7869 123.133 92.4452 123.211C92.1167 123.277 91.7552 123.31 91.3609 123.31C89.9284 123.31 88.8309 122.889 88.0687 122.048C87.3064 121.194 86.9252 120.005 86.9252 118.48C86.9252 117.718 87.0435 117.028 87.2801 116.41C87.5167 115.779 87.8584 115.24 88.3052 114.793C88.7652 114.347 89.3238 114.005 89.9809 113.768C90.6381 113.519 91.3807 113.394 92.2087 113.394C92.5635 113.394 92.9249 113.413 93.2929 113.453C93.6741 113.479 94.0487 113.519 94.4167 113.571C94.7847 113.624 95.1329 113.689 95.4615 113.768C95.8032 113.834 96.1055 113.906 96.3684 113.985V122.699ZM106.836 121.891C107.375 121.891 107.756 121.838 107.98 121.733C108.203 121.628 108.315 121.424 108.315 121.122C108.315 120.885 108.17 120.681 107.881 120.511C107.592 120.327 107.152 120.123 106.56 119.899C106.1 119.729 105.68 119.551 105.299 119.367C104.931 119.183 104.615 118.966 104.352 118.717C104.089 118.454 103.886 118.145 103.741 117.79C103.597 117.435 103.524 117.008 103.524 116.509C103.524 115.536 103.886 114.767 104.609 114.202C105.331 113.637 106.324 113.354 107.585 113.354C108.216 113.354 108.821 113.413 109.399 113.532C109.977 113.637 110.437 113.755 110.779 113.887L110.267 116.173C109.925 116.055 109.55 115.95 109.143 115.858C108.749 115.766 108.302 115.72 107.802 115.72C106.882 115.72 106.422 115.976 106.422 116.489C106.422 116.607 106.442 116.712 106.481 116.804C106.521 116.896 106.6 116.988 106.718 117.08C106.836 117.159 106.994 117.251 107.191 117.356C107.401 117.448 107.664 117.553 107.98 117.672C108.624 117.908 109.156 118.145 109.577 118.381C109.997 118.605 110.326 118.855 110.562 119.131C110.812 119.393 110.983 119.689 111.075 120.018C111.18 120.346 111.233 120.727 111.233 121.161C111.233 122.186 110.845 122.962 110.069 123.487C109.307 124.013 108.223 124.276 106.817 124.276C105.897 124.276 105.128 124.197 104.51 124.039C103.905 123.882 103.485 123.75 103.248 123.645L103.741 121.26C104.241 121.457 104.753 121.615 105.279 121.733C105.805 121.838 106.324 121.891 106.836 121.891ZM120.072 118.894C120.072 117.987 119.868 117.264 119.46 116.725C119.053 116.173 118.448 115.897 117.647 115.897C117.384 115.897 117.141 115.911 116.917 115.937C116.694 115.95 116.51 115.97 116.365 115.996V121.299C116.549 121.417 116.786 121.516 117.075 121.595C117.377 121.674 117.68 121.713 117.982 121.713C119.375 121.713 120.072 120.773 120.072 118.894ZM123.068 118.815C123.068 119.617 122.97 120.346 122.772 121.003C122.575 121.661 122.286 122.226 121.905 122.699C121.524 123.172 121.051 123.54 120.486 123.803C119.92 124.066 119.27 124.197 118.534 124.197C118.126 124.197 117.745 124.158 117.39 124.079C117.036 124 116.694 123.888 116.365 123.744V127.647H113.428V113.985C113.691 113.906 113.993 113.834 114.335 113.768C114.676 113.689 115.031 113.624 115.399 113.571C115.78 113.519 116.162 113.479 116.543 113.453C116.937 113.413 117.312 113.394 117.666 113.394C118.521 113.394 119.283 113.525 119.953 113.788C120.624 114.038 121.189 114.399 121.649 114.872C122.109 115.332 122.457 115.897 122.694 116.568C122.943 117.238 123.068 117.987 123.068 118.815ZM129.288 121.95C129.577 121.95 129.853 121.943 130.116 121.93C130.379 121.917 130.589 121.897 130.747 121.871V119.643C130.629 119.617 130.451 119.591 130.215 119.564C129.978 119.538 129.761 119.525 129.564 119.525C129.288 119.525 129.025 119.545 128.776 119.584C128.539 119.61 128.329 119.669 128.145 119.761C127.961 119.853 127.816 119.978 127.711 120.136C127.606 120.294 127.553 120.491 127.553 120.727C127.553 121.187 127.705 121.509 128.007 121.693C128.322 121.864 128.749 121.95 129.288 121.95ZM129.052 113.354C129.919 113.354 130.642 113.453 131.22 113.65C131.799 113.847 132.259 114.13 132.6 114.498C132.955 114.866 133.205 115.313 133.349 115.838C133.494 116.364 133.566 116.949 133.566 117.593V123.704C133.146 123.796 132.561 123.901 131.812 124.02C131.063 124.151 130.156 124.217 129.091 124.217C128.421 124.217 127.81 124.158 127.258 124.039C126.719 123.921 126.252 123.731 125.858 123.468C125.464 123.192 125.161 122.837 124.951 122.403C124.741 121.969 124.636 121.437 124.636 120.806C124.636 120.202 124.754 119.689 124.991 119.269C125.24 118.848 125.569 118.513 125.976 118.263C126.384 118.013 126.85 117.836 127.376 117.731C127.902 117.613 128.447 117.553 129.012 117.553C129.393 117.553 129.729 117.573 130.018 117.613C130.32 117.639 130.563 117.678 130.747 117.731V117.455C130.747 116.955 130.596 116.555 130.294 116.252C129.991 115.95 129.466 115.799 128.717 115.799C128.217 115.799 127.724 115.838 127.238 115.917C126.752 115.983 126.331 116.081 125.976 116.213L125.602 113.847C125.773 113.795 125.983 113.742 126.233 113.689C126.495 113.624 126.778 113.571 127.08 113.532C127.383 113.479 127.698 113.44 128.027 113.413C128.368 113.374 128.71 113.354 129.052 113.354ZM135.73 118.815C135.73 118.066 135.848 117.363 136.084 116.706C136.334 116.035 136.689 115.457 137.149 114.971C137.609 114.471 138.168 114.077 138.825 113.788C139.482 113.499 140.231 113.354 141.072 113.354C141.624 113.354 142.13 113.407 142.59 113.512C143.05 113.604 143.497 113.742 143.931 113.926L143.32 116.272C143.044 116.167 142.741 116.075 142.413 115.996C142.084 115.917 141.716 115.878 141.309 115.878C140.441 115.878 139.791 116.147 139.357 116.686C138.936 117.225 138.726 117.935 138.726 118.815C138.726 119.748 138.923 120.471 139.318 120.984C139.725 121.496 140.428 121.753 141.427 121.753C141.782 121.753 142.163 121.72 142.57 121.654C142.978 121.588 143.352 121.483 143.694 121.339L144.108 123.744C143.766 123.888 143.339 124.013 142.827 124.118C142.314 124.223 141.749 124.276 141.131 124.276C140.185 124.276 139.37 124.138 138.687 123.862C138.003 123.573 137.438 123.185 136.991 122.699C136.558 122.213 136.236 121.641 136.025 120.984C135.828 120.313 135.73 119.591 135.73 118.815ZM145.086 118.894C145.086 117.974 145.224 117.172 145.5 116.489C145.789 115.792 146.164 115.214 146.624 114.754C147.084 114.294 147.61 113.946 148.201 113.709C148.806 113.473 149.423 113.354 150.054 113.354C151.526 113.354 152.689 113.808 153.544 114.715C154.398 115.608 154.825 116.929 154.825 118.677C154.825 118.848 154.819 119.039 154.805 119.249C154.792 119.446 154.779 119.623 154.766 119.781H148.103C148.168 120.386 148.451 120.865 148.95 121.22C149.45 121.575 150.12 121.753 150.961 121.753C151.5 121.753 152.026 121.707 152.538 121.615C153.064 121.509 153.491 121.385 153.82 121.24L154.214 123.625C154.056 123.704 153.846 123.783 153.583 123.862C153.32 123.941 153.025 124.007 152.696 124.059C152.381 124.125 152.039 124.177 151.671 124.217C151.303 124.256 150.935 124.276 150.567 124.276C149.634 124.276 148.819 124.138 148.122 123.862C147.439 123.586 146.867 123.211 146.407 122.738C145.96 122.252 145.625 121.68 145.402 121.023C145.191 120.366 145.086 119.656 145.086 118.894ZM151.986 117.77C151.973 117.521 151.927 117.277 151.848 117.041C151.783 116.804 151.671 116.594 151.513 116.41C151.369 116.226 151.178 116.075 150.941 115.957C150.718 115.838 150.435 115.779 150.094 115.779C149.765 115.779 149.483 115.838 149.246 115.957C149.009 116.062 148.812 116.206 148.655 116.39C148.497 116.574 148.372 116.791 148.28 117.041C148.201 117.277 148.142 117.521 148.103 117.77H151.986ZM161.729 111.048L164.667 110.575V113.63H168.196V116.075H164.667V119.722C164.667 120.34 164.772 120.833 164.982 121.201C165.206 121.569 165.646 121.753 166.303 121.753C166.619 121.753 166.941 121.726 167.269 121.674C167.611 121.608 167.92 121.523 168.196 121.417L168.61 123.704C168.255 123.849 167.861 123.974 167.427 124.079C166.993 124.184 166.461 124.237 165.83 124.237C165.028 124.237 164.365 124.131 163.839 123.921C163.313 123.698 162.893 123.395 162.577 123.014C162.262 122.62 162.038 122.147 161.907 121.595C161.789 121.043 161.729 120.432 161.729 119.761V111.048ZM176.837 116.233C176.574 116.167 176.265 116.101 175.911 116.035C175.556 115.957 175.175 115.917 174.767 115.917C174.583 115.917 174.36 115.937 174.097 115.976C173.847 116.003 173.657 116.035 173.525 116.075V124H170.588V114.182C171.113 113.998 171.731 113.827 172.441 113.67C173.164 113.499 173.965 113.413 174.846 113.413C175.004 113.413 175.194 113.427 175.418 113.453C175.641 113.466 175.865 113.492 176.088 113.532C176.311 113.558 176.535 113.597 176.758 113.65C176.982 113.689 177.172 113.742 177.33 113.808L176.837 116.233ZM182.675 121.95C182.964 121.95 183.24 121.943 183.503 121.93C183.766 121.917 183.976 121.897 184.134 121.871V119.643C184.015 119.617 183.838 119.591 183.601 119.564C183.365 119.538 183.148 119.525 182.951 119.525C182.675 119.525 182.412 119.545 182.162 119.584C181.926 119.61 181.715 119.669 181.531 119.761C181.347 119.853 181.203 119.978 181.098 120.136C180.992 120.294 180.94 120.491 180.94 120.727C180.94 121.187 181.091 121.509 181.393 121.693C181.709 121.864 182.136 121.95 182.675 121.95ZM182.438 113.354C183.306 113.354 184.028 113.453 184.607 113.65C185.185 113.847 185.645 114.13 185.987 114.498C186.342 114.866 186.591 115.313 186.736 115.838C186.88 116.364 186.953 116.949 186.953 117.593V123.704C186.532 123.796 185.947 123.901 185.198 124.02C184.449 124.151 183.542 124.217 182.478 124.217C181.807 124.217 181.196 124.158 180.644 124.039C180.105 123.921 179.639 123.731 179.244 123.468C178.85 123.192 178.548 122.837 178.338 122.403C178.127 121.969 178.022 121.437 178.022 120.806C178.022 120.202 178.14 119.689 178.377 119.269C178.627 118.848 178.955 118.513 179.363 118.263C179.77 118.013 180.237 117.836 180.762 117.731C181.288 117.613 181.834 117.553 182.399 117.553C182.78 117.553 183.115 117.573 183.404 117.613C183.706 117.639 183.95 117.678 184.134 117.731V117.455C184.134 116.955 183.982 116.555 183.68 116.252C183.378 115.95 182.852 115.799 182.103 115.799C181.604 115.799 181.111 115.838 180.624 115.917C180.138 115.983 179.718 116.081 179.363 116.213L178.988 113.847C179.159 113.795 179.369 113.742 179.619 113.689C179.882 113.624 180.164 113.571 180.467 113.532C180.769 113.479 181.084 113.44 181.413 113.413C181.755 113.374 182.096 113.354 182.438 113.354ZM189.116 118.815C189.116 118.066 189.234 117.363 189.471 116.706C189.721 116.035 190.075 115.457 190.535 114.971C190.995 114.471 191.554 114.077 192.211 113.788C192.868 113.499 193.617 113.354 194.459 113.354C195.011 113.354 195.517 113.407 195.977 113.512C196.437 113.604 196.883 113.742 197.317 113.926L196.706 116.272C196.43 116.167 196.128 116.075 195.799 115.996C195.471 115.917 195.103 115.878 194.695 115.878C193.828 115.878 193.177 116.147 192.743 116.686C192.323 117.225 192.113 117.935 192.113 118.815C192.113 119.748 192.31 120.471 192.704 120.984C193.111 121.496 193.815 121.753 194.813 121.753C195.168 121.753 195.549 121.72 195.957 121.654C196.364 121.588 196.739 121.483 197.081 121.339L197.495 123.744C197.153 123.888 196.726 124.013 196.213 124.118C195.701 124.223 195.135 124.276 194.518 124.276C193.571 124.276 192.757 124.138 192.073 123.862C191.39 123.573 190.825 123.185 190.378 122.699C189.944 122.213 189.622 121.641 189.412 120.984C189.215 120.313 189.116 119.591 189.116 118.815ZM202.404 117.376C202.693 117.061 202.988 116.732 203.291 116.39C203.606 116.049 203.908 115.713 204.198 115.385C204.487 115.043 204.756 114.721 205.006 114.419C205.269 114.117 205.492 113.854 205.676 113.63H209.166C208.469 114.432 207.786 115.201 207.115 115.937C206.458 116.66 205.735 117.409 204.947 118.184C205.341 118.539 205.748 118.966 206.169 119.466C206.59 119.952 206.997 120.458 207.391 120.984C207.786 121.509 208.147 122.035 208.476 122.561C208.804 123.087 209.08 123.566 209.304 124H205.932C205.722 123.658 205.479 123.284 205.203 122.876C204.94 122.456 204.658 122.042 204.355 121.634C204.053 121.214 203.731 120.813 203.389 120.432C203.061 120.051 202.732 119.729 202.404 119.466V124H199.466V109.175L202.404 108.702V117.376ZM213.82 124H210.883V113.63H213.82V124ZM214.096 110.634C214.096 111.173 213.919 111.6 213.564 111.915C213.222 112.217 212.815 112.369 212.341 112.369C211.868 112.369 211.454 112.217 211.099 111.915C210.758 111.6 210.587 111.173 210.587 110.634C210.587 110.095 210.758 109.674 211.099 109.372C211.454 109.057 211.868 108.899 212.341 108.899C212.815 108.899 213.222 109.057 213.564 109.372C213.919 109.674 214.096 110.095 214.096 110.634ZM216.581 113.985C217.081 113.841 217.725 113.709 218.513 113.591C219.302 113.459 220.13 113.394 220.997 113.394C221.878 113.394 222.607 113.512 223.186 113.749C223.777 113.972 224.244 114.294 224.585 114.715C224.927 115.135 225.17 115.635 225.315 116.213C225.459 116.791 225.532 117.435 225.532 118.145V124H222.594V118.5C222.594 117.553 222.469 116.883 222.22 116.489C221.97 116.095 221.503 115.897 220.82 115.897C220.61 115.897 220.386 115.911 220.15 115.937C219.913 115.95 219.703 115.97 219.519 115.996V124H216.581V113.985ZM230.694 118.48C230.694 120.123 231.358 120.944 232.685 120.944C232.988 120.944 233.27 120.905 233.533 120.826C233.796 120.747 234.019 120.655 234.203 120.55V115.858C234.059 115.832 233.888 115.812 233.691 115.799C233.494 115.773 233.264 115.759 233.001 115.759C232.225 115.759 231.647 116.016 231.266 116.528C230.885 117.041 230.694 117.691 230.694 118.48ZM237.141 122.699C237.141 124.394 236.707 125.649 235.84 126.464C234.985 127.292 233.658 127.706 231.857 127.706C231.226 127.706 230.596 127.647 229.965 127.529C229.334 127.424 228.749 127.279 228.21 127.095L228.723 124.631C229.183 124.815 229.662 124.959 230.162 125.065C230.674 125.17 231.253 125.222 231.897 125.222C232.738 125.222 233.329 125.038 233.671 124.67C234.026 124.302 234.203 123.829 234.203 123.251V122.876C233.888 123.021 233.559 123.133 233.218 123.211C232.889 123.277 232.528 123.31 232.133 123.31C230.701 123.31 229.603 122.889 228.841 122.048C228.079 121.194 227.698 120.005 227.698 118.48C227.698 117.718 227.816 117.028 228.052 116.41C228.289 115.779 228.631 115.24 229.078 114.793C229.538 114.347 230.096 114.005 230.753 113.768C231.41 113.519 232.153 113.394 232.981 113.394C233.336 113.394 233.697 113.413 234.065 113.453C234.446 113.479 234.821 113.519 235.189 113.571C235.557 113.624 235.905 113.689 236.234 113.768C236.576 113.834 236.878 113.906 237.141 113.985V122.699ZM247.609 121.891C248.148 121.891 248.529 121.838 248.752 121.733C248.976 121.628 249.087 121.424 249.087 121.122C249.087 120.885 248.943 120.681 248.654 120.511C248.364 120.327 247.924 120.123 247.333 119.899C246.873 119.729 246.452 119.551 246.071 119.367C245.703 119.183 245.388 118.966 245.125 118.717C244.862 118.454 244.658 118.145 244.514 117.79C244.369 117.435 244.297 117.008 244.297 116.509C244.297 115.536 244.658 114.767 245.381 114.202C246.104 113.637 247.096 113.354 248.358 113.354C248.989 113.354 249.593 113.413 250.172 113.532C250.75 113.637 251.21 113.755 251.552 113.887L251.039 116.173C250.697 116.055 250.323 115.95 249.915 115.858C249.521 115.766 249.074 115.72 248.575 115.72C247.655 115.72 247.195 115.976 247.195 116.489C247.195 116.607 247.214 116.712 247.254 116.804C247.293 116.896 247.372 116.988 247.49 117.08C247.609 117.159 247.766 117.251 247.964 117.356C248.174 117.448 248.437 117.553 248.752 117.672C249.396 117.908 249.928 118.145 250.349 118.381C250.77 118.605 251.098 118.855 251.335 119.131C251.584 119.393 251.755 119.689 251.847 120.018C251.952 120.346 252.005 120.727 252.005 121.161C252.005 122.186 251.617 122.962 250.842 123.487C250.08 124.013 248.995 124.276 247.589 124.276C246.669 124.276 245.9 124.197 245.282 124.039C244.678 123.882 244.257 123.75 244.021 123.645L244.514 121.26C245.013 121.457 245.526 121.615 246.051 121.733C246.577 121.838 247.096 121.891 247.609 121.891ZM263.9 118.795C263.9 119.61 263.781 120.359 263.545 121.043C263.308 121.713 262.966 122.291 262.52 122.778C262.073 123.251 261.534 123.619 260.903 123.882C260.285 124.145 259.589 124.276 258.813 124.276C258.051 124.276 257.354 124.145 256.724 123.882C256.106 123.619 255.574 123.251 255.127 122.778C254.68 122.291 254.332 121.713 254.082 121.043C253.832 120.359 253.707 119.61 253.707 118.795C253.707 117.981 253.832 117.238 254.082 116.568C254.345 115.897 254.7 115.326 255.146 114.853C255.606 114.379 256.145 114.011 256.763 113.749C257.394 113.486 258.077 113.354 258.813 113.354C259.562 113.354 260.246 113.486 260.864 113.749C261.494 114.011 262.033 114.379 262.48 114.853C262.927 115.326 263.275 115.897 263.525 116.568C263.775 117.238 263.9 117.981 263.9 118.795ZM260.903 118.795C260.903 117.889 260.719 117.179 260.351 116.666C259.996 116.141 259.484 115.878 258.813 115.878C258.143 115.878 257.624 116.141 257.256 116.666C256.888 117.179 256.704 117.889 256.704 118.795C256.704 119.702 256.888 120.425 257.256 120.964C257.624 121.49 258.143 121.753 258.813 121.753C259.484 121.753 259.996 121.49 260.351 120.964C260.719 120.425 260.903 119.702 260.903 118.795ZM270.67 108.702C271.222 108.702 271.728 108.761 272.188 108.879C272.648 108.984 273.003 109.089 273.252 109.195L272.681 111.541C272.418 111.422 272.129 111.337 271.813 111.284C271.511 111.219 271.228 111.186 270.966 111.186C270.611 111.186 270.308 111.238 270.059 111.343C269.822 111.435 269.632 111.567 269.487 111.738C269.356 111.909 269.257 112.112 269.191 112.349C269.139 112.585 269.112 112.842 269.112 113.118V113.63H272.74V116.075H269.112V124H266.175V113.078C266.175 111.738 266.55 110.673 267.299 109.885C268.061 109.096 269.185 108.702 270.67 108.702ZM274.393 111.048L277.331 110.575V113.63H280.86V116.075H277.331V119.722C277.331 120.34 277.436 120.833 277.646 121.201C277.87 121.569 278.31 121.753 278.967 121.753C279.283 121.753 279.605 121.726 279.933 121.674C280.275 121.608 280.584 121.523 280.86 121.417L281.274 123.704C280.919 123.849 280.525 123.974 280.091 124.079C279.657 124.184 279.125 124.237 278.494 124.237C277.692 124.237 277.029 124.131 276.503 123.921C275.977 123.698 275.557 123.395 275.241 123.014C274.926 122.62 274.702 122.147 274.571 121.595C274.453 121.043 274.393 120.432 274.393 119.761V111.048ZM289.753 118.046C289.49 119.045 289.207 120.037 288.905 121.023C288.616 122.009 288.307 123.001 287.979 124H285.692C285.455 123.448 285.199 122.791 284.923 122.029C284.647 121.266 284.358 120.438 284.055 119.545C283.766 118.638 283.464 117.685 283.149 116.686C282.846 115.674 282.551 114.655 282.261 113.63H285.357C285.462 114.103 285.573 114.623 285.692 115.188C285.823 115.74 285.955 116.311 286.086 116.903C286.231 117.494 286.375 118.092 286.52 118.697C286.677 119.288 286.835 119.86 286.993 120.412C287.164 119.834 287.328 119.242 287.486 118.638C287.657 118.033 287.814 117.442 287.959 116.863C288.117 116.272 288.261 115.707 288.393 115.168C288.537 114.616 288.662 114.103 288.767 113.63H290.896C291.001 114.103 291.12 114.616 291.251 115.168C291.383 115.707 291.521 116.272 291.665 116.863C291.81 117.442 291.961 118.033 292.119 118.638C292.276 119.242 292.441 119.834 292.611 120.412C292.769 119.86 292.927 119.288 293.085 118.697C293.242 118.092 293.387 117.494 293.518 116.903C293.663 116.311 293.794 115.74 293.913 115.188C294.044 114.623 294.162 114.103 294.267 113.63H297.323C297.034 114.655 296.732 115.674 296.416 116.686C296.114 117.685 295.812 118.638 295.509 119.545C295.22 120.438 294.931 121.266 294.642 122.029C294.366 122.791 294.11 123.448 293.873 124H291.586C291.258 123.001 290.936 122.009 290.62 121.023C290.305 120.037 290.016 119.045 289.753 118.046ZM302.674 121.95C302.963 121.95 303.239 121.943 303.502 121.93C303.765 121.917 303.975 121.897 304.133 121.871V119.643C304.014 119.617 303.837 119.591 303.6 119.564C303.364 119.538 303.147 119.525 302.95 119.525C302.674 119.525 302.411 119.545 302.161 119.584C301.925 119.61 301.714 119.669 301.53 119.761C301.346 119.853 301.202 119.978 301.097 120.136C300.992 120.294 300.939 120.491 300.939 120.727C300.939 121.187 301.09 121.509 301.392 121.693C301.708 121.864 302.135 121.95 302.674 121.95ZM302.437 113.354C303.305 113.354 304.028 113.453 304.606 113.65C305.184 113.847 305.644 114.13 305.986 114.498C306.341 114.866 306.59 115.313 306.735 115.838C306.88 116.364 306.952 116.949 306.952 117.593V123.704C306.531 123.796 305.946 123.901 305.197 124.02C304.448 124.151 303.541 124.217 302.477 124.217C301.806 124.217 301.195 124.158 300.643 124.039C300.104 123.921 299.638 123.731 299.244 123.468C298.849 123.192 298.547 122.837 298.337 122.403C298.126 121.969 298.021 121.437 298.021 120.806C298.021 120.202 298.14 119.689 298.376 119.269C298.626 118.848 298.954 118.513 299.362 118.263C299.769 118.013 300.236 117.836 300.762 117.731C301.287 117.613 301.833 117.553 302.398 117.553C302.779 117.553 303.114 117.573 303.403 117.613C303.706 117.639 303.949 117.678 304.133 117.731V117.455C304.133 116.955 303.982 116.555 303.679 116.252C303.377 115.95 302.851 115.799 302.102 115.799C301.603 115.799 301.11 115.838 300.624 115.917C300.137 115.983 299.717 116.081 299.362 116.213L298.987 113.847C299.158 113.795 299.368 113.742 299.618 113.689C299.881 113.624 300.164 113.571 300.466 113.532C300.768 113.479 301.084 113.44 301.412 113.413C301.754 113.374 302.096 113.354 302.437 113.354ZM315.858 116.233C315.595 116.167 315.286 116.101 314.931 116.035C314.576 115.957 314.195 115.917 313.788 115.917C313.604 115.917 313.38 115.937 313.117 115.976C312.868 116.003 312.677 116.035 312.546 116.075V124H309.608V114.182C310.134 113.998 310.752 113.827 311.461 113.67C312.184 113.499 312.986 113.413 313.866 113.413C314.024 113.413 314.215 113.427 314.438 113.453C314.662 113.466 314.885 113.492 315.108 113.532C315.332 113.558 315.555 113.597 315.779 113.65C316.002 113.689 316.193 113.742 316.35 113.808L315.858 116.233ZM317.24 118.894C317.24 117.974 317.378 117.172 317.654 116.489C317.943 115.792 318.317 115.214 318.777 114.754C319.237 114.294 319.763 113.946 320.355 113.709C320.959 113.473 321.577 113.354 322.208 113.354C323.68 113.354 324.843 113.808 325.697 114.715C326.551 115.608 326.979 116.929 326.979 118.677C326.979 118.848 326.972 119.039 326.959 119.249C326.946 119.446 326.933 119.623 326.919 119.781H320.256C320.322 120.386 320.604 120.865 321.104 121.22C321.603 121.575 322.273 121.753 323.115 121.753C323.653 121.753 324.179 121.707 324.692 121.615C325.217 121.509 325.645 121.385 325.973 121.24L326.367 123.625C326.21 123.704 325.999 123.783 325.737 123.862C325.474 123.941 325.178 124.007 324.849 124.059C324.534 124.125 324.192 124.177 323.824 124.217C323.456 124.256 323.088 124.276 322.72 124.276C321.787 124.276 320.972 124.138 320.276 123.862C319.592 123.586 319.021 123.211 318.561 122.738C318.114 122.252 317.779 121.68 317.555 121.023C317.345 120.366 317.24 119.656 317.24 118.894ZM324.14 117.77C324.127 117.521 324.081 117.277 324.002 117.041C323.936 116.804 323.824 116.594 323.667 116.41C323.522 116.226 323.331 116.075 323.095 115.957C322.871 115.838 322.589 115.779 322.247 115.779C321.919 115.779 321.636 115.838 321.399 115.957C321.163 116.062 320.966 116.206 320.808 116.39C320.65 116.574 320.525 116.791 320.433 117.041C320.355 117.277 320.295 117.521 320.256 117.77H324.14Z" fill="#6B6B6B"/>
<line x1="66.5" y1="88.5" x2="262.5" y2="88.5" stroke="url(#paint0_linear)" stroke-width="5" stroke-linecap="round" stroke-linejoin="round"/>
<defs>
<filter id="filter0_d" x="104" y="5.87646" width="107.619" height="59.6236" filterUnits="userSpaceOnUse" color-interpolation-filters="sRGB">
<feFlood flood-opacity="0" result="BackgroundImageFix"/>
<feColorMatrix in="SourceAlpha" type="matrix" values="0 0 0 0 0 0 0 0 0 0 0 0 0 0 0 0 0 0 127 0"/>
<feOffset dy="4"/>
<feGaussianBlur stdDeviation="2"/>
<feColorMatrix type="matrix" values="0 0 0 0 0 0 0 0 0 0 0 0 0 0 0 0 0 0 0.25 0"/>
<feBlend mode="normal" in2="BackgroundImageFix" result="effect1_dropShadow"/>
<feBlend mode="normal" in="SourceGraphic" in2="effect1_dropShadow" result="shape"/>
</filter>
<linearGradient id="paint0_linear" x1="265" y1="91" x2="64" y2="91" gradientUnits="userSpaceOnUse">
<stop stop-color="#4D4D4D" stop-opacity="0"/>
<stop offset="0.50945" stop-color="#FF7A00"/>
<stop offset="1" stop-color="#4D4D4D" stop-opacity="0"/>
</linearGradient>
</defs>
</svg>
