<svg width="53" height="48" viewBox="0 0 53 48" fill="none" xmlns="http://www.w3.org/2000/svg">
<path d="M52.5 18.3225V42C52.5 44.8875 50.1375 47.25 47.25 47.25H5.25C2.3625 47.25 0 44.8875 0 42L0.02625 10.5C0.02625 7.6125 2.3625 5.25 5.25 5.25H31.7625C31.605 6.09 31.5 6.9825 31.5 7.875C31.5 8.7675 31.605 9.66 31.7625 10.5H5.25L26.25 23.625L35.8838 17.6138C37.1175 18.7425 38.5612 19.6087 40.1625 20.1862L26.25 28.875L5.25 15.75V42H47.25V20.7375C49.1925 20.3437 50.9775 19.4775 52.5 18.3225ZM36.75 7.875C36.75 12.2325 40.2675 15.75 44.625 15.75C48.9825 15.75 52.5 12.2325 52.5 7.875C52.5 3.5175 48.9825 0 44.625 0C40.2675 0 36.75 3.5175 36.75 7.875Z" fill="white"/>
</svg>
