<svg width="42" height="42" viewBox="0 0 42 42" fill="none" xmlns="http://www.w3.org/2000/svg">
<path d="M42 7.875C42 9.96358 41.1703 11.9666 39.6935 13.4435C38.2166 14.9203 36.2136 15.75 34.125 15.75C32.0364 15.75 30.0334 14.9203 28.5565 13.4435C27.0797 11.9666 26.25 9.96358 26.25 7.875C26.25 5.78642 27.0797 3.78338 28.5565 2.30653C30.0334 0.829685 32.0364 0 34.125 0C36.2136 0 38.2166 0.829685 39.6935 2.30653C41.1703 3.78338 42 5.78642 42 7.875V7.875Z" fill="#FF0000"/>
<path d="M21 5.25H0V42H36.75V21H31.5V36.75H5.25V10.5H21V5.25Z" fill="white"/>
</svg>
