<svg width="27" height="42" viewBox="0 0 27 42" fill="none" xmlns="http://www.w3.org/2000/svg">
<path fill-rule="evenodd" clip-rule="evenodd" d="M0 5.25C0 3.85761 0.553123 2.52226 1.53769 1.53769C2.52226 0.553124 3.85761 0 5.25 0L21 0C22.3924 0 23.7277 0.553124 24.7123 1.53769C25.6969 2.52226 26.25 3.85761 26.25 5.25V36.75C26.25 38.1424 25.6969 39.4777 24.7123 40.4623C23.7277 41.4469 22.3924 42 21 42H5.25C3.85761 42 2.52226 41.4469 1.53769 40.4623C0.553123 39.4777 0 38.1424 0 36.75V5.25ZM15.75 34.125C15.75 34.8212 15.4734 35.4889 14.9812 35.9812C14.4889 36.4734 13.8212 36.75 13.125 36.75C12.4288 36.75 11.7611 36.4734 11.2688 35.9812C10.7766 35.4889 10.5 34.8212 10.5 34.125C10.5 33.4288 10.7766 32.7611 11.2688 32.2688C11.7611 31.7766 12.4288 31.5 13.125 31.5C13.8212 31.5 14.4889 31.7766 14.9812 32.2688C15.4734 32.7611 15.75 33.4288 15.75 34.125V34.125Z" fill="white"/>
</svg>
