<svg width="125" height="84" viewBox="0 0 125 84" fill="none" xmlns="http://www.w3.org/2000/svg">
<path d="M62 0C56.8577 0 51.8309 1.52487 47.5552 4.38179C43.2795 7.23871 39.947 11.2993 37.9791 16.0502C36.0113 20.8011 35.4964 26.0288 36.4996 31.0723C37.5028 36.1158 39.9791 40.7486 43.6152 44.3848C47.2514 48.0209 51.8842 50.4972 56.9277 51.5004C61.9712 52.5036 67.1989 51.9887 71.9498 50.0209C76.7007 48.053 80.7613 44.7205 83.6182 40.4448C86.4751 36.1691 88 31.1423 88 26C88 19.1044 85.2607 12.4912 80.3848 7.61522C75.5088 2.73928 68.8956 0 62 0ZM62 48.75C57.5005 48.75 53.102 47.4157 49.3608 44.9159C45.6196 42.4161 42.7036 38.8631 40.9818 34.706C39.2599 30.549 38.8093 25.9748 39.6871 21.5617C40.565 17.1486 42.7317 13.095 45.9133 9.91332C49.095 6.73167 53.1486 4.56495 57.5617 3.68713C61.9748 2.80932 66.549 3.25985 70.7061 4.98174C74.8631 6.70363 78.4161 9.61956 80.9159 13.3608C83.4157 17.102 84.75 21.5005 84.75 26C84.75 32.0337 82.3531 37.8202 78.0867 42.0867C73.8202 46.3531 68.0337 48.75 62 48.75Z" fill="#FFA800"/>
<path d="M78.25 16.4125C77.9455 16.1098 77.5337 15.94 77.1044 15.94C76.6751 15.94 76.2632 16.1098 75.9588 16.4125L57.9213 34.3687L48.1713 24.6187C47.8739 24.2977 47.4611 24.1079 47.0238 24.0911C46.5865 24.0744 46.1605 24.232 45.8394 24.5294C45.5183 24.8267 45.3285 25.2395 45.3118 25.6768C45.295 26.1141 45.4526 26.5402 45.75 26.8612L57.9213 39L78.25 18.72C78.4023 18.5689 78.5232 18.3892 78.6057 18.1912C78.6882 17.9932 78.7307 17.7808 78.7307 17.5662C78.7307 17.3517 78.6882 17.1393 78.6057 16.9413C78.5232 16.7433 78.4023 16.5636 78.25 16.4125Z" fill="#FFA800"/>
<path d="M10.9255 72.2092V72.1631C10.9255 70.5497 9.63472 69.2435 8.02125 69.2435H3.6572C2.05909 69.2435 0.768319 70.5497 0.768319 72.1631V72.2092C0.768319 72.8239 0.952716 73.3925 1.27541 73.8688C1.38297 74.0225 1.52127 74.1761 1.65957 74.3144C2.16666 74.8215 2.87351 75.1289 3.6572 75.1289H7.52953C8.34394 75.1289 9.02007 75.7896 9.02007 76.604C9.02007 77.4184 8.34394 78.0792 7.52953 78.0792H4.16429C3.3345 78.0792 2.67375 77.4184 2.67375 76.604H0.768319C0.768319 78.4787 2.27422 80 4.16429 80H7.52953C9.40423 80 10.9255 78.4787 10.9255 76.604C10.9255 75.7896 10.6489 75.052 10.1572 74.4527C10.1264 74.4066 10.0803 74.3605 10.0342 74.3144C9.41959 73.623 8.52834 73.1927 7.52953 73.1927H3.6572C3.11938 73.1927 2.67375 72.7624 2.67375 72.2092V72.1631C2.67375 71.61 3.11938 71.1797 3.6572 71.1797H8.02125C8.57444 71.1797 9.02007 71.61 9.02007 72.1631V72.2092H10.9255ZM28.2237 69.2435V74.6371C28.2237 76.5426 26.6717 78.0946 24.7663 78.0946C22.8455 78.0946 21.2935 76.5426 21.2935 74.6371V69.2435H19.388V74.6371C19.388 77.6028 21.7852 80.0154 24.7663 80.0154C27.732 80.0154 30.1445 77.6028 30.1445 74.6371V69.2435H28.2237ZM43.8176 71.1643H49.1958V69.2435H43.8176C40.8365 69.2435 38.4394 71.6561 38.4394 74.6371C38.4394 77.6028 40.8365 80.0154 43.8176 80.0154H49.1958V78.0946H43.8176C41.8968 78.0946 40.3448 76.5426 40.3448 74.6371C40.3448 72.7163 41.8968 71.1643 43.8176 71.1643ZM62.1972 71.1643H67.5755V69.2435H62.1972C59.2161 69.2435 56.819 71.6561 56.819 74.6371C56.819 77.6028 59.2161 80.0154 62.1972 80.0154H67.5755V78.0946H62.1972C60.2764 78.0946 58.7244 76.5426 58.7244 74.6371C58.7244 72.7163 60.2764 71.1643 62.1972 71.1643ZM78.9164 71.1643H86.7687V69.2435H78.9164C77.3183 69.2435 76.0276 70.5497 76.0276 72.1631V77.0958C76.0276 78.7092 77.3183 80.0154 78.9164 80.0154H86.7687V78.0946H78.9164C78.3786 78.0946 77.933 77.6489 77.933 77.0958V75.0674H84.8479V73.1466H77.933V72.1631C77.933 71.61 78.3786 71.1643 78.9164 71.1643ZM105.39 72.2092V72.1631C105.39 70.5497 104.099 69.2435 102.485 69.2435H98.1214C96.5233 69.2435 95.2325 70.5497 95.2325 72.1631V72.2092C95.2325 72.8239 95.4169 73.3925 95.7396 73.8688C95.8472 74.0225 95.9855 74.1761 96.1238 74.3144C96.6309 74.8215 97.3377 75.1289 98.1214 75.1289H101.994C102.808 75.1289 103.484 75.7896 103.484 76.604C103.484 77.4184 102.808 78.0792 101.994 78.0792H98.6285C97.7987 78.0792 97.138 77.4184 97.138 76.604H95.2325C95.2325 78.4787 96.7384 80 98.6285 80H101.994C103.868 80 105.39 78.4787 105.39 76.604C105.39 75.7896 105.113 75.052 104.621 74.4527C104.591 74.4066 104.545 74.3605 104.498 74.3144C103.884 73.623 102.993 73.1927 101.994 73.1927H98.1214C97.5836 73.1927 97.138 72.7624 97.138 72.2092V72.1631C97.138 71.61 97.5836 71.1797 98.1214 71.1797H102.485C103.039 71.1797 103.484 71.61 103.484 72.1631V72.2092H105.39ZM124.009 72.2092V72.1631C124.009 70.5497 122.719 69.2435 121.105 69.2435H116.741C115.143 69.2435 113.852 70.5497 113.852 72.1631V72.2092C113.852 72.8239 114.037 73.3925 114.359 73.8688C114.467 74.0225 114.605 74.1761 114.744 74.3144C115.251 74.8215 115.957 75.1289 116.741 75.1289H120.613C121.428 75.1289 122.104 75.7896 122.104 76.604C122.104 77.4184 121.428 78.0792 120.613 78.0792H117.248C116.418 78.0792 115.758 77.4184 115.758 76.604H113.852C113.852 78.4787 115.358 80 117.248 80H120.613C122.488 80 124.009 78.4787 124.009 76.604C124.009 75.7896 123.733 75.052 123.241 74.4527C123.21 74.4066 123.164 74.3605 123.118 74.3144C122.504 73.623 121.612 73.1927 120.613 73.1927H116.741C116.203 73.1927 115.758 72.7624 115.758 72.2092V72.1631C115.758 71.61 116.203 71.1797 116.741 71.1797H121.105C121.658 71.1797 122.104 71.61 122.104 72.1631V72.2092H124.009Z" fill="white"/>
</svg>
